<svg width="82" height="82" viewBox="0 0 82 82" fill="none" xmlns="http://www.w3.org/2000/svg">
<mask id="path-1-inside-1_391_2724" fill="white">
<path d="M82 76C82 79.3137 79.3137 82 76 82L0 82L-7.16867e-06 7.16867e-06L82 0L82 76Z"/>
</mask>
<path d="M83 76C83 79.866 79.866 83 76 83L8.74228e-08 83L-8.74228e-08 81L76 81C78.7614 81 81 78.7614 81 76L83 76ZM-7.16867e-06 7.16867e-06L82 0L-7.16867e-06 7.16867e-06ZM83 -8.74228e-08L83 76C83 79.866 79.866 83 76 83L76 81C78.7614 81 81 78.7614 81 76L81 8.74228e-08L83 -8.74228e-08ZM0 82L-7.16867e-06 7.16867e-06L0 82Z" fill="#888888" mask="url(#path-1-inside-1_391_2724)"/>
</svg>
