<svg width="20" height="20" viewBox="0 0 20 20" fill="none" xmlns="http://www.w3.org/2000/svg">
<rect width="20" height="20" rx="2" fill="white"/>
<path d="M10.9833 4L15.0167 14.5763C15.1722 14.9605 15.3389 15.2373 15.5167 15.4068C15.6944 15.565 15.8556 15.6497 16 15.661V16C15.6 15.9774 15.1333 15.9661 14.6 15.9661C14.0667 15.9548 13.5222 15.9492 12.9667 15.9492C12.4 15.9492 11.8667 15.9548 11.3667 15.9661C10.8667 15.9661 10.4667 15.9774 10.1667 16V15.661C10.7333 15.6384 11.0889 15.5424 11.2333 15.3729C11.3889 15.1921 11.3556 14.8136 11.1333 14.2373L8.46667 6.72881L8.8 6.13559L6.5 12.2203C6.22222 12.9548 6.05 13.548 5.98333 14C5.92778 14.4407 5.95556 14.7797 6.06667 15.0169C6.17778 15.2542 6.35556 15.4181 6.6 15.5085C6.84444 15.5989 7.13333 15.6497 7.46667 15.661V16C7.05556 15.9774 6.68333 15.9661 6.35 15.9661C6.02778 15.9548 5.67222 15.9492 5.28333 15.9492C5.07222 15.9492 4.84444 15.9548 4.6 15.9661C4.36667 15.9661 4.16667 15.9774 4 16V15.661C4.25556 15.6158 4.50556 15.452 4.75 15.1695C5.00556 14.8757 5.26667 14.3785 5.53333 13.678L9.23333 4C9.5 4.0226 9.78889 4.0339 10.1 4.0339C10.4222 4.0339 10.7167 4.0226 10.9833 4ZM11.5667 11.1186V11.4576H6.6L6.76667 11.1186H11.5667Z" fill="black"/>
</svg>
