<?xml version="1.0" encoding="UTF-8"?>
<svg id="Layer_1" data-name="Layer 1" xmlns="http://www.w3.org/2000/svg" viewBox="0 0 2000 379">
  <defs>
    <style>
      .cls-1 {
        fill: #fff;
      }
    </style>
  </defs>
  <path class="cls-1" d="M1080.7,1.15v342.31c22.99,20.26,47.75,19.59,67.86-3.71,37.08-81.49,62.98-171.45,99.87-252.5,6.07-13.34,20.42-43.36,28.59-53.92,9.07-11.71,32.38-3.74,46.29-6.23l118.39,302.11c6.25,31.18,49.9,18.5,42.17,49.79h-158.25l.39-18.33c9.19-3.69,41.05-5.44,41.11-17.02l-30.62-80.17-116.53,1.27-33.77,84.28,40.93,11.79.53,18.18h-259.98l.53-18.18,34.58-11.48,5.98-13.57c-5.05-86.96,7.94-183.51.51-269.3-3.61-41.72-45.17-13.46-45.17-50.13l116.6-15.17ZM1321.84,229.35l-41.49-112.23c-5.55.94-7.3,6.86-9.38,11.22-14.36,29.99-24.49,69.27-35.79,101.01h86.66Z"/>
  <path class="cls-1" d="M168.87,31.08l-.39,18.33-44.71,13.38,67.75,218.91,84.71-243.16,44.82-3.96,79.54,247.18,68.84-215.33-40.07-17.16-.51-18.19h116.8c6.42,27.26-17.91,20.84-31.12,33.53l-111.63,315.92-51.35-1.47-71.53-235.78-82.88,235.74-54.27,3.34L48.48,73.92C40.69,48.64,2.4,61.76,10.62,31.08h158.25Z"/>
  <path class="cls-1" d="M801.87,360.29c14.48-6.4,40.51-4.44,41.09-24.53-5.05-86.95,7.94-183.51.51-269.3-3.61-41.72-45.17-13.46-45.17-50.13l116.6-15.17v342.31l37.16,17.35.53,18.2h-150.75c-.16-6.21.22-12.49.02-18.72-6.51,2.88-12.31,8.93-20,11.96-36.41,14.3-92.74,23.3-100.61-26.92-49.05,61.2-163.23,49.69-154.45-43.04,2.15-22.76,20.77-46.17,40.17-57.39,7.56-4.37,45.84-19.29,52.15-19.29h62.17c.24-16.86,2.02-57-13.56-66.96-37.56-24.01-104.93,50.34-118.31,37.05l-3.3-55.69c61.14-25.03,196.4-41.41,206.76,50.05,5.15,45.46-4.38,98.92.61,145.3,12.16,18.03,31.42,5.01,48.36,6.21.2,6.21-.19,12.5,0,18.72ZM681.3,251.8c-34.09-2.64-79.43,9.62-79.41,50.5.02,62.32,79.41,35.95,79.41,14.96v-65.47Z"/>
  <path class="cls-1" d="M1988.76,248.06h-165.79c-2.2,67.39,35.21,102.21,103.3,93.21,22.29-2.95,40.64-19.19,62.47-22.12,3.91,26.83-4.02,29.7-23.83,41.77-112.06,68.28-234.9,3.67-216.32-132.47,20.34-148.97,265.05-145.32,240.17,19.61ZM1913.4,221.87c10.42-99.48-89.42-91.35-90.43,0h90.43Z"/>
  <path class="cls-1" d="M1596.9,128.35l-.39,18.33-37.25,9.68,62.12,151.6,54.54-149.54c-18.2-6.36-40.09-5.89-33.82-30.07h105.5c5.98,23.97-12.74,21.05-26.14,32.04-18.42,15.12-56.84,126.84-71.16,157.54-9.79,20.98-22.15,40.8-30.42,62.49l-41.32,1.81-90.09-215.45c-11.73-19.4-42.28-10.25-34.76-38.44h143.18Z"/>
</svg>