<svg width="152" height="29" viewBox="0 0 152 29" fill="none" xmlns="http://www.w3.org/2000/svg">
<path d="M148.066 1.08398V7.591H151.961V8.39434H148.066V25.0635C148.066 25.5723 148.159 25.9472 148.344 26.1882C148.53 26.4024 148.834 26.5096 149.258 26.5096C149.55 26.5096 149.894 26.4292 150.292 26.2686C150.689 26.0811 151.06 25.7732 151.405 25.3447L152.001 25.8267C151.444 26.7907 150.703 27.5673 149.775 28.1564C148.874 28.7187 147.735 28.9999 146.357 28.9999C145.482 28.9999 144.687 28.8794 143.972 28.6384C143.283 28.4242 142.713 28.0894 142.263 27.6342C141.68 27.0451 141.309 26.3221 141.15 25.4652C140.991 24.5815 140.911 23.4435 140.911 22.051V8.39434H137.891V7.591H140.911V2.85132C142.316 2.85132 143.588 2.71743 144.727 2.44966C145.893 2.1551 147.006 1.69987 148.066 1.08398Z" fill="white"/>
<path d="M134.254 7.0293C135.208 7.0293 135.95 7.24352 136.48 7.67197C137.01 8.07363 137.381 8.5958 137.593 9.23847C137.805 9.85436 137.911 10.4703 137.911 11.0861C137.911 12.2911 137.566 13.2551 136.877 13.9781C136.215 14.6744 135.34 15.0225 134.254 15.0225C133.088 15.0225 132.2 14.7547 131.591 14.2192C131.008 13.6836 130.716 12.9874 130.716 12.1305C130.716 11.22 130.902 10.4703 131.273 9.88114C131.67 9.29203 132.161 8.79663 132.744 8.39497C132.267 8.39497 131.843 8.48869 131.472 8.67614C131.154 8.81002 130.849 8.99747 130.557 9.23847C130.266 9.47947 130.014 9.76064 129.802 10.082C129.59 10.3765 129.418 10.7113 129.285 11.0861C129.179 11.461 129.126 11.8493 129.126 12.251V24.301C129.126 25.5863 129.391 26.4566 129.921 26.9118C130.451 27.3671 131.326 27.5947 132.545 27.5947V28.4382C131.935 28.4114 131.021 28.3846 129.802 28.3579C128.61 28.3043 127.378 28.2775 126.106 28.2775C124.913 28.2775 123.708 28.3043 122.489 28.3579C121.27 28.3846 120.356 28.4114 119.746 28.4382V27.5947C120.568 27.5947 121.137 27.3939 121.455 26.9922C121.8 26.5905 121.972 25.8273 121.972 24.7027V11.9698C121.972 10.7648 121.813 9.88114 121.495 9.3188C121.177 8.72969 120.594 8.43513 119.746 8.43513V7.59163C120.594 7.67197 121.415 7.71213 122.21 7.71213C123.535 7.71213 124.768 7.67197 125.907 7.59163C127.073 7.48452 128.146 7.33724 129.126 7.1498V10.0418C129.471 9.34558 129.895 8.78325 130.398 8.3548C130.902 7.89958 131.472 7.56485 132.108 7.35063C132.77 7.13641 133.485 7.0293 134.254 7.0293Z" fill="white"/>
<path d="M103.998 28.7194C102.753 28.7194 101.732 28.4784 100.937 27.9964C100.143 27.5144 99.5596 26.8851 99.1886 26.1085C98.8441 25.332 98.6719 24.5152 98.6719 23.6583C98.6719 22.5337 98.9236 21.6232 99.4271 20.927C99.9305 20.204 100.58 19.6283 101.375 19.1998C102.196 18.7446 103.057 18.3697 103.958 18.0752C104.859 17.7806 105.707 17.4994 106.502 17.2317C107.324 16.9371 107.986 16.6024 108.489 16.2275C108.993 15.8258 109.245 15.317 109.245 14.7012V11.1263C109.245 10.6979 109.165 10.2292 109.006 9.72047C108.874 9.21169 108.609 8.76986 108.211 8.39497C107.814 8.02008 107.218 7.83263 106.423 7.83263C105.999 7.83263 105.588 7.89958 105.19 8.03347C104.819 8.14058 104.488 8.30125 104.197 8.51547C105.124 8.86358 105.8 9.35897 106.224 10.0016C106.648 10.6175 106.86 11.3004 106.86 12.0501C106.86 13.1213 106.489 13.9648 105.747 14.5807C105.005 15.1965 104.131 15.5045 103.124 15.5045C102.064 15.5045 101.242 15.1698 100.659 14.5003C100.076 13.8309 99.7848 13.0008 99.7848 12.01C99.7848 11.1799 99.9835 10.4836 100.381 9.92131C100.805 9.33219 101.428 8.79664 102.249 8.31463C103.044 7.85941 103.998 7.53808 105.111 7.35063C106.224 7.13641 107.39 7.0293 108.609 7.0293C109.907 7.0293 111.113 7.16319 112.226 7.43097C113.339 7.67197 114.293 8.20752 115.088 9.03764C115.644 9.62675 116.002 10.3631 116.161 11.2468C116.32 12.1305 116.399 13.2685 116.399 14.661V25.4257C116.399 26.0951 116.439 26.5504 116.518 26.7914C116.624 27.0324 116.797 27.1529 117.035 27.1529C117.247 27.1529 117.446 27.0859 117.631 26.952C117.843 26.8181 118.042 26.6842 118.228 26.5504L118.625 27.2332C118.042 27.742 117.313 28.1169 116.439 28.3579C115.591 28.5989 114.69 28.7194 113.736 28.7194C112.597 28.7194 111.709 28.5855 111.073 28.3177C110.464 28.0231 110.026 27.6482 109.761 27.193C109.523 26.711 109.39 26.2022 109.364 25.6667C108.807 26.5504 108.105 27.2867 107.257 27.8759C106.436 28.4382 105.349 28.7194 103.998 28.7194ZM107.774 25.506C108.066 25.506 108.317 25.4658 108.529 25.3855C108.768 25.2784 109.006 25.091 109.245 24.8232V16.348C109.059 16.6961 108.807 17.0442 108.489 17.3923C108.198 17.7137 107.893 18.0484 107.575 18.3965C107.257 18.7446 106.953 19.1195 106.661 19.5212C106.396 19.9228 106.171 20.3914 105.985 20.927C105.826 21.4358 105.747 22.0383 105.747 22.7345C105.747 23.7521 105.932 24.4751 106.303 24.9035C106.701 25.3052 107.191 25.506 107.774 25.506Z" fill="white"/>
<path d="M77.5254 7.0293C78.7443 7.0293 79.6983 7.18996 80.3872 7.5113C81.1027 7.80585 81.6459 8.18074 82.0169 8.63597C82.4143 9.11797 82.7058 9.76064 82.8913 10.564C83.0768 11.3673 83.1695 12.4518 83.1695 13.8175V24.7027C83.1695 25.8273 83.302 26.5905 83.567 26.9922C83.832 27.3939 84.309 27.5947 84.9979 27.5947V28.4382C84.4945 28.4114 83.7393 28.3846 82.7323 28.3579C81.7519 28.3043 80.7847 28.2775 79.8308 28.2775C78.7973 28.2775 77.7904 28.3043 76.81 28.3579C75.8295 28.3846 75.0876 28.4114 74.5841 28.4382V27.5947C75.1141 27.5947 75.485 27.3939 75.697 26.9922C75.909 26.5905 76.015 25.8273 76.015 24.7027V11.6485C76.015 11.0861 75.962 10.6175 75.856 10.2426C75.75 9.86775 75.5778 9.58658 75.3393 9.39914C75.1273 9.21169 74.8358 9.11797 74.4649 9.11797C73.9879 9.11797 73.5242 9.23847 73.0737 9.47947C72.6497 9.72047 72.292 10.0686 72.0005 10.5238C71.7355 10.9523 71.603 11.4476 71.603 12.01V24.7027C71.603 25.8273 71.709 26.5905 71.921 26.9922C72.133 27.3939 72.504 27.5947 73.034 27.5947V28.4382C72.5835 28.4114 71.8945 28.3846 70.9671 28.3579C70.0661 28.3043 69.1387 28.2775 68.1848 28.2775C67.0718 28.2775 65.9457 28.3043 64.8062 28.3579C63.6668 28.3846 62.8056 28.4114 62.2227 28.4382V27.5947C63.0441 27.5947 63.6138 27.3939 63.9318 26.9922C64.2763 26.5905 64.4485 25.8273 64.4485 24.7027V11.9698C64.4485 10.7648 64.2895 9.88114 63.9715 9.3188C63.6536 8.72969 63.0706 8.43513 62.2227 8.43513V7.59163C63.0706 7.67197 63.892 7.71213 64.687 7.71213C66.0119 7.71213 67.2441 7.67197 68.3835 7.59163C69.5494 7.48452 70.6226 7.33724 71.603 7.1498V10.0418C72.2125 8.97069 73.0207 8.20752 74.0276 7.7523C75.0346 7.2703 76.2005 7.0293 77.5254 7.0293ZM89.4894 7.0293C90.7083 7.0293 91.6623 7.18996 92.3512 7.5113C93.0667 7.80585 93.6099 8.18074 93.9809 8.63597C94.3783 9.11797 94.6698 9.76064 94.8553 10.564C95.0408 11.3673 95.1335 12.4518 95.1335 13.8175V24.7027C95.1335 25.8273 95.2925 26.5905 95.6105 26.9922C95.955 27.3939 96.5379 27.5947 97.3594 27.5947V28.4382C96.8294 28.4114 96.0212 28.3846 94.9348 28.3579C93.8749 28.3043 92.8282 28.2775 91.7947 28.2775C90.7613 28.2775 89.7544 28.3043 88.7739 28.3579C87.7935 28.3846 87.0515 28.4114 86.5481 28.4382V27.5947C87.078 27.5947 87.449 27.3939 87.661 26.9922C87.873 26.5905 87.979 25.8273 87.979 24.7027V11.6485C87.979 11.0861 87.9127 10.6175 87.7802 10.2426C87.6478 9.86775 87.4358 9.58658 87.1443 9.39914C86.8793 9.21169 86.5083 9.11797 86.0314 9.11797C85.5544 9.11797 85.0907 9.26525 84.6402 9.5598C84.2162 9.85436 83.8585 10.2426 83.567 10.7246C83.302 11.1799 83.143 11.6886 83.09 12.251L82.8118 10.6443C83.5273 9.22508 84.4547 8.27447 85.5941 7.79247C86.7601 7.28369 88.0585 7.0293 89.4894 7.0293Z" fill="white"/>
<path d="M57.5074 1.08398V7.591H61.4026V8.39434H57.5074V25.0635C57.5074 25.5723 57.6001 25.9472 57.7856 26.1882C57.9711 26.4024 58.2758 26.5096 58.6998 26.5096C58.9913 26.5096 59.3358 26.4292 59.7332 26.2686C60.1307 26.0811 60.5017 25.7732 60.8462 25.3447L61.4424 25.8267C60.8859 26.7907 60.1439 27.5673 59.2165 28.1564C58.3156 28.7187 57.1761 28.9999 55.7982 28.9999C54.9238 28.9999 54.1288 28.8794 53.4134 28.6384C52.7244 28.4242 52.1547 28.0894 51.7042 27.6342C51.1213 27.0451 50.7503 26.3221 50.5913 25.4652C50.4323 24.5815 50.3528 23.4435 50.3528 22.051V8.39434H47.332V7.591H50.3528V2.85132C51.7572 2.85132 53.0292 2.71743 54.1686 2.44966C55.3345 2.1551 56.4474 1.69987 57.5074 1.08398Z" fill="white"/>
<path d="M43.6953 7.0293C44.6492 7.0293 45.3912 7.24352 45.9212 7.67197C46.4511 8.07363 46.8221 8.5958 47.0341 9.23847C47.2461 9.85436 47.3521 10.4703 47.3521 11.0861C47.3521 12.2911 47.0076 13.2551 46.3186 13.9781C45.6562 14.6744 44.7817 15.0225 43.6953 15.0225C42.5294 15.0225 41.6417 14.7547 41.0322 14.2192C40.4493 13.6836 40.1578 12.9874 40.1578 12.1305C40.1578 11.22 40.3433 10.4703 40.7143 9.88114C41.1117 9.29203 41.6019 8.79663 42.1849 8.39497C41.7079 8.39497 41.284 8.48869 40.913 8.67614C40.595 8.81002 40.2903 8.99747 39.9988 9.23847C39.7073 9.47947 39.4556 9.76064 39.2436 10.082C39.0316 10.3765 38.8594 10.7113 38.7269 11.0861C38.6209 11.461 38.5679 11.8493 38.5679 12.251V24.301C38.5679 25.5863 38.8329 26.4566 39.3628 26.9118C39.8928 27.3671 40.7672 27.5947 41.9862 27.5947V28.4382C41.3767 28.4114 40.4625 28.3846 39.2436 28.3579C38.0512 28.3043 36.819 28.2775 35.5471 28.2775C34.3547 28.2775 33.149 28.3043 31.9301 28.3579C30.7112 28.3846 29.797 28.4114 29.1875 28.4382V27.5947C30.0089 27.5947 30.5787 27.3939 30.8966 26.9922C31.2411 26.5905 31.4134 25.8273 31.4134 24.7027V11.9698C31.4134 10.7648 31.2544 9.88114 30.9364 9.3188C30.6184 8.72969 30.0354 8.43513 29.1875 8.43513V7.59163C30.0354 7.67197 30.8569 7.71213 31.6518 7.71213C32.9768 7.71213 34.2089 7.67197 35.3484 7.59163C36.5143 7.48452 37.5875 7.33724 38.5679 7.1498V10.0418C38.9124 9.34558 39.3363 8.78325 39.8398 8.3548C40.3433 7.89958 40.913 7.56485 41.5489 7.35063C42.2114 7.13641 42.9269 7.0293 43.6953 7.0293Z" fill="white"/>
<path d="M16.6542 0L26.273 25.0641C26.644 25.9745 27.0415 26.6306 27.4655 27.0322C27.8894 27.4071 28.2737 27.608 28.6181 27.6347V28.4381C27.6642 28.3845 26.5513 28.3577 25.2794 28.3577C24.0074 28.331 22.709 28.3176 21.3841 28.3176C20.0327 28.3176 18.7608 28.331 17.5684 28.3577C16.3759 28.3577 15.422 28.3845 14.7065 28.4381V27.6347C16.058 27.5812 16.9059 27.3536 17.2504 26.9519C17.6214 26.5235 17.5419 25.6264 17.0119 24.2607L10.6523 6.46685L11.4473 5.06101L5.96211 19.4809C5.29966 21.2214 4.88893 22.6273 4.72994 23.6984C4.59745 24.7427 4.6637 25.5461 4.92868 26.1084C5.19366 26.6707 5.61764 27.059 6.2006 27.2732C6.78356 27.4875 7.47252 27.608 8.26746 27.6347V28.4381C7.28703 28.3845 6.39934 28.3577 5.60439 28.3577C4.83594 28.331 3.98799 28.3176 3.06055 28.3176C2.55708 28.3176 2.01387 28.331 1.43091 28.3577C0.874443 28.3577 0.397474 28.3845 0 28.4381V27.6347C0.609461 27.5276 1.20567 27.1393 1.78863 26.4699C2.39809 25.7737 3.0208 24.5955 3.65676 22.9352L12.4807 0C13.1166 0.053555 13.8056 0.0803325 14.5476 0.0803325C15.316 0.0803325 16.0182 0.053555 16.6542 0ZM18.0453 16.87V17.6734H6.2006L6.59807 16.87H18.0453Z" fill="white"/>
</svg>
