<svg width="138" height="27" viewBox="0 0 138 27" fill="none" xmlns="http://www.w3.org/2000/svg">
<path d="M133.771 0.974609V6.82324H137.272V7.5453H133.771V22.5279C133.771 22.9852 133.854 23.3222 134.021 23.5388C134.188 23.7313 134.461 23.8276 134.843 23.8276C135.105 23.8276 135.414 23.7554 135.771 23.611C136.129 23.4425 136.462 23.1657 136.772 22.7806L137.308 23.2139C136.807 24.0803 136.141 24.7783 135.307 25.3078C134.497 25.8133 133.473 26.066 132.235 26.066C131.449 26.066 130.734 25.9577 130.091 25.741C129.472 25.5485 128.96 25.2476 128.555 24.8385C128.031 24.309 127.697 23.6591 127.555 22.8889C127.412 22.0947 127.34 21.0718 127.34 19.8202V7.5453H124.625V6.82324H127.34V2.56313C128.602 2.56313 129.746 2.44279 130.77 2.2021C131.818 1.93735 132.818 1.52818 133.771 0.974609Z" fill="white"/>
<path d="M121.36 6.31836C122.218 6.31836 122.885 6.51091 123.361 6.896C123.837 7.25703 124.171 7.72636 124.361 8.30401C124.552 8.85758 124.647 9.41116 124.647 9.96473C124.647 11.0478 124.337 11.9143 123.718 12.5641C123.123 13.1899 122.337 13.5028 121.36 13.5028C120.312 13.5028 119.514 13.2621 118.967 12.7807C118.443 12.2994 118.181 11.6736 118.181 10.9034C118.181 10.0851 118.347 9.41116 118.681 8.88165C119.038 8.35214 119.479 7.90688 120.003 7.54585C119.574 7.54585 119.193 7.63009 118.859 7.79857C118.574 7.91891 118.3 8.08739 118.038 8.30401C117.776 8.52062 117.549 8.77334 117.359 9.06216C117.168 9.32692 117.014 9.62777 116.894 9.96473C116.799 10.3017 116.752 10.6507 116.752 11.0117V21.8425C116.752 22.9978 116.99 23.78 117.466 24.1892C117.942 24.5983 118.728 24.8029 119.824 24.8029V25.5611C119.276 25.537 118.455 25.5129 117.359 25.4889C116.287 25.4407 115.18 25.4167 114.036 25.4167C112.965 25.4167 111.881 25.4407 110.785 25.4889C109.69 25.5129 108.868 25.537 108.32 25.5611V24.8029C109.059 24.8029 109.571 24.6224 109.857 24.2614C110.166 23.9004 110.321 23.2144 110.321 22.2035V10.759C110.321 9.67591 110.178 8.88165 109.892 8.37621C109.606 7.84671 109.082 7.58195 108.32 7.58195V6.8238C109.082 6.896 109.821 6.93211 110.535 6.93211C111.726 6.93211 112.834 6.896 113.858 6.8238C114.906 6.72752 115.87 6.59515 116.752 6.42667V9.02606C117.061 8.40028 117.442 7.89484 117.895 7.50975C118.347 7.10058 118.859 6.79973 119.431 6.60718C120.026 6.41463 120.67 6.31836 121.36 6.31836Z" fill="white"/>
<path d="M94.1623 25.8138C93.0428 25.8138 92.1259 25.5972 91.4114 25.164C90.6969 24.7307 90.1729 24.1651 89.8394 23.4671C89.5298 22.7691 89.375 22.0351 89.375 21.2649C89.375 20.254 89.6013 19.4357 90.0538 18.8099C90.5063 18.16 91.0898 17.6426 91.8044 17.2575C92.5427 16.8483 93.3167 16.5114 94.1265 16.2466C94.9363 15.9818 95.6985 15.7291 96.413 15.4884C97.1513 15.2237 97.7467 14.9228 98.1993 14.5859C98.6518 14.2248 98.8781 13.7675 98.8781 13.214V10.0008C98.8781 9.61574 98.8066 9.19454 98.6637 8.73724C98.5446 8.27994 98.3064 7.88281 97.9492 7.54585C97.5919 7.20889 97.056 7.04041 96.3415 7.04041C95.9604 7.04041 95.5913 7.10058 95.234 7.22093C94.9006 7.3172 94.6029 7.46161 94.3409 7.65416C95.1745 7.96705 95.7818 8.41232 96.1629 8.98996C96.544 9.54353 96.7345 10.1573 96.7345 10.8312C96.7345 11.7939 96.4011 12.5521 95.7342 13.1057C95.0673 13.6592 94.2813 13.936 93.3763 13.936C92.4236 13.936 91.6853 13.6352 91.1613 13.0335C90.6373 12.4317 90.3753 11.6856 90.3753 10.7951C90.3753 10.049 90.554 9.42319 90.9112 8.91775C91.2923 8.38825 91.852 7.90688 92.5903 7.47364C93.3048 7.06448 94.1623 6.77566 95.1626 6.60718C96.1629 6.41463 97.2108 6.31836 98.3064 6.31836C99.4735 6.31836 100.557 6.4387 101.557 6.67939C102.558 6.896 103.415 7.37737 104.13 8.12349C104.63 8.653 104.951 9.31488 105.094 10.1091C105.237 10.9034 105.309 11.9263 105.309 13.1779V22.8534C105.309 23.4551 105.344 23.8643 105.416 24.0809C105.511 24.2975 105.666 24.4058 105.88 24.4058C106.071 24.4058 106.249 24.3456 106.416 24.2253C106.607 24.1049 106.785 23.9846 106.952 23.8643L107.309 24.478C106.785 24.9353 106.13 25.2723 105.344 25.4889C104.582 25.7055 103.772 25.8138 102.915 25.8138C101.891 25.8138 101.093 25.6935 100.521 25.4528C99.9736 25.188 99.5807 24.8511 99.3425 24.4419C99.1281 24.0087 99.009 23.5514 98.9852 23.07C98.4851 23.8643 97.8539 24.5261 97.0918 25.0556C96.3534 25.5611 95.3769 25.8138 94.1623 25.8138ZM97.5562 22.9256C97.8182 22.9256 98.0445 22.8895 98.235 22.8173C98.4493 22.721 98.6637 22.5525 98.8781 22.3118V14.6942C98.7113 15.0071 98.4851 15.32 98.1993 15.6329C97.9373 15.9217 97.6634 16.2225 97.3776 16.5354C97.0918 16.8483 96.8179 17.1853 96.5559 17.5463C96.3177 17.9073 96.1153 18.3285 95.9485 18.8099C95.8056 19.2672 95.7342 19.8087 95.7342 20.4345C95.7342 21.3491 95.9009 21.999 96.2343 22.3841C96.5916 22.7451 97.0322 22.9256 97.5562 22.9256Z" fill="white"/>
<path d="M70.3677 6.31836C71.4633 6.31836 72.3207 6.46277 72.94 6.75159C73.583 7.01634 74.0713 7.3533 74.4047 7.76247C74.762 8.1957 75.024 8.77334 75.1907 9.49539C75.3574 10.2174 75.4408 11.1922 75.4408 12.4197V22.2035C75.4408 23.2144 75.5598 23.9004 75.798 24.2614C76.0362 24.6224 76.4649 24.8029 77.0841 24.8029V25.5611C76.6316 25.537 75.9528 25.5129 75.0478 25.4889C74.1665 25.4407 73.2972 25.4167 72.4398 25.4167C71.5109 25.4167 70.6059 25.4407 69.7246 25.4889C68.8434 25.5129 68.1765 25.537 67.724 25.5611V24.8029C68.2003 24.8029 68.5338 24.6224 68.7243 24.2614C68.9149 23.9004 69.0101 23.2144 69.0101 22.2035V10.4702C69.0101 9.96473 68.9625 9.54353 68.8672 9.20657C68.7719 8.86962 68.6171 8.6169 68.4028 8.44842C68.2122 8.27994 67.9503 8.1957 67.6168 8.1957C67.1881 8.1957 66.7713 8.30401 66.3664 8.52062C65.9853 8.73724 65.6638 9.05013 65.4018 9.45929C65.1636 9.84439 65.0446 10.2897 65.0446 10.7951V22.2035C65.0446 23.2144 65.1398 23.9004 65.3304 24.2614C65.5209 24.6224 65.8543 24.8029 66.3307 24.8029V25.5611C65.9258 25.537 65.3065 25.5129 64.4729 25.4889C63.6632 25.4407 62.8296 25.4167 61.9721 25.4167C60.9718 25.4167 59.9596 25.4407 58.9355 25.4889C57.9113 25.5129 57.1373 25.537 56.6133 25.5611V24.8029C57.3516 24.8029 57.8637 24.6224 58.1495 24.2614C58.4591 23.9004 58.6139 23.2144 58.6139 22.2035V10.759C58.6139 9.67591 58.471 8.88165 58.1852 8.37621C57.8994 7.84671 57.3754 7.58195 56.6133 7.58195V6.8238C57.3754 6.896 58.1138 6.93211 58.8283 6.93211C60.0191 6.93211 61.1266 6.896 62.1508 6.8238C63.1987 6.72752 64.1633 6.59515 65.0446 6.42667V9.02606C65.5924 8.06332 66.3188 7.37737 67.2238 6.96821C68.1289 6.53497 69.1768 6.31836 70.3677 6.31836ZM81.1212 6.31836C82.2167 6.31836 83.0742 6.46277 83.6934 6.75159C84.3365 7.01634 84.8247 7.3533 85.1582 7.76247C85.5154 8.1957 85.7774 8.77334 85.9441 9.49539C86.1108 10.2174 86.1942 11.1922 86.1942 12.4197V22.2035C86.1942 23.2144 86.3371 23.9004 86.6229 24.2614C86.9325 24.6224 87.4565 24.8029 88.1949 24.8029V25.5611C87.7185 25.537 86.9921 25.5129 86.0156 25.4889C85.0629 25.4407 84.1221 25.4167 83.1932 25.4167C82.2644 25.4167 81.3593 25.4407 80.4781 25.4889C79.5968 25.5129 78.93 25.537 78.4774 25.5611V24.8029C78.9538 24.8029 79.2872 24.6224 79.4778 24.2614C79.6683 23.9004 79.7636 23.2144 79.7636 22.2035V10.4702C79.7636 9.96473 79.704 9.54353 79.5849 9.20657C79.4659 8.86962 79.2753 8.6169 79.0133 8.44842C78.7752 8.27994 78.4417 8.1957 78.013 8.1957C77.5843 8.1957 77.1675 8.32807 76.7626 8.59283C76.3815 8.85758 76.06 9.20657 75.798 9.63981C75.5598 10.049 75.4169 10.5063 75.3693 11.0117L75.1192 9.5676C75.7623 8.29197 76.5959 7.43754 77.62 7.00431C78.668 6.54701 79.835 6.31836 81.1212 6.31836Z" fill="white"/>
<path d="M52.3763 0.974609V6.82324H55.8774V7.5453H52.3763V22.5279C52.3763 22.9852 52.4596 23.3222 52.6263 23.5388C52.7931 23.7313 53.067 23.8276 53.448 23.8276C53.71 23.8276 54.0196 23.7554 54.3769 23.611C54.7342 23.4425 55.0676 23.1657 55.3772 22.7806L55.9131 23.2139C55.413 24.0803 54.7461 24.7783 53.9125 25.3078C53.1027 25.8133 52.0785 26.066 50.8401 26.066C50.0541 26.066 49.3396 25.9577 48.6965 25.741C48.0773 25.5485 47.5652 25.2476 47.1603 24.8385C46.6363 24.309 46.3029 23.6591 46.16 22.8889C46.0171 22.0947 45.9456 21.0718 45.9456 19.8202V7.5453H43.2305V6.82324H45.9456V2.56313C47.2079 2.56313 48.3512 2.44279 49.3753 2.2021C50.4233 1.93735 51.4236 1.52818 52.3763 0.974609Z" fill="white"/>
<path d="M39.9618 6.31836C40.8192 6.31836 41.4861 6.51091 41.9624 6.896C42.4388 7.25703 42.7722 7.72636 42.9627 8.30401C43.1533 8.85758 43.2485 9.41116 43.2485 9.96473C43.2485 11.0478 42.9389 11.9143 42.3197 12.5641C41.7242 13.1899 40.9383 13.5028 39.9618 13.5028C38.9138 13.5028 38.1159 13.2621 37.5682 12.7807C37.0442 12.2994 36.7822 11.6736 36.7822 10.9034C36.7822 10.0851 36.9489 9.41116 37.2823 8.88165C37.6396 8.35214 38.0802 7.90688 38.6042 7.54585C38.1755 7.54585 37.7944 7.63009 37.461 7.79857C37.1752 7.91891 36.9013 8.08739 36.6393 8.30401C36.3773 8.52062 36.151 8.77334 35.9605 9.06216C35.77 9.32692 35.6151 9.62777 35.4961 9.96473C35.4008 10.3017 35.3532 10.6507 35.3532 11.0117V21.8425C35.3532 22.9978 35.5913 23.78 36.0677 24.1892C36.544 24.5983 37.33 24.8029 38.4256 24.8029V25.5611C37.8778 25.537 37.0561 25.5129 35.9605 25.4889C34.8887 25.4407 33.7812 25.4167 32.638 25.4167C31.5662 25.4167 30.4825 25.4407 29.387 25.4889C28.2914 25.5129 27.4697 25.537 26.9219 25.5611V24.8029C27.6602 24.8029 28.1723 24.6224 28.4581 24.2614C28.7677 23.9004 28.9225 23.2144 28.9225 22.2035V10.759C28.9225 9.67591 28.7796 8.88165 28.4938 8.37621C28.208 7.84671 27.684 7.58195 26.9219 7.58195V6.8238C27.684 6.896 28.4224 6.93211 29.1369 6.93211C30.3277 6.93211 31.4352 6.896 32.4594 6.8238C33.5073 6.72752 34.4719 6.59515 35.3532 6.42667V9.02606C35.6628 8.40028 36.0439 7.89484 36.4964 7.50975C36.9489 7.10058 37.461 6.79973 38.0326 6.60718C38.628 6.41463 39.2711 6.31836 39.9618 6.31836Z" fill="white"/>
<path d="M15.6566 0L24.3022 22.5281C24.6357 23.3464 24.9929 23.9361 25.374 24.2971C25.7551 24.6341 26.1004 24.8146 26.41 24.8386V25.5607C25.5526 25.5126 24.5523 25.4885 23.4091 25.4885C22.2659 25.4644 21.0988 25.4524 19.908 25.4524C18.6933 25.4524 17.5501 25.4644 16.4783 25.4885C15.4065 25.4885 14.5491 25.5126 13.906 25.5607V24.8386C15.1207 24.7905 15.8829 24.5859 16.1925 24.2249C16.5259 23.8398 16.4545 23.0335 15.9781 21.806L10.262 5.81253L10.9765 4.54894L6.04636 17.5098C5.45093 19.0742 5.08177 20.3378 4.93886 21.3006C4.81978 22.2392 4.87932 22.9613 5.11749 23.4667C5.35567 23.9722 5.73674 24.3212 6.26072 24.5137C6.7847 24.7063 7.40394 24.8146 8.11846 24.8386V25.5607C7.23722 25.5126 6.43935 25.4885 5.72483 25.4885C5.03413 25.4644 4.27198 25.4524 3.43838 25.4524C2.98586 25.4524 2.4976 25.4644 1.97363 25.4885C1.47347 25.4885 1.04476 25.5126 0.6875 25.5607V24.8386C1.23529 24.7424 1.77118 24.3934 2.29516 23.7917C2.84295 23.1659 3.40266 22.1069 3.97427 20.6146L11.9054 0C12.477 0.0481363 13.0962 0.0722044 13.7631 0.0722044C14.4538 0.0722044 15.085 0.0481363 15.6566 0ZM16.907 15.1631V15.8852H6.26072L6.61798 15.1631H16.907Z" fill="white"/>
</svg>
