<svg width="29" height="16" viewBox="0 0 29 16" fill="none" xmlns="http://www.w3.org/2000/svg">
<path fill-rule="evenodd" clip-rule="evenodd" d="M14.1887 13.926C15.6475 15.2168 17.6066 15.9998 19.7375 15.9998C24.3139 15.9998 28.018 12.4153 28.018 8.00668C28.018 3.58462 24.3139 0 19.7375 0C17.6066 0 15.6475 0.782807 14.1887 2.0738C12.5154 3.54324 11.457 5.65826 11.457 8.00668C11.4572 10.3551 12.5154 12.4703 14.1887 13.926Z" fill="#E9B040"/>
<path fill-rule="evenodd" clip-rule="evenodd" d="M26.9219 12.4561C26.9219 12.3187 27.0363 12.209 27.1792 12.209C27.3364 12.209 27.4507 12.3189 27.4507 12.4561C27.4507 12.6074 27.3363 12.7172 27.1792 12.7172C27.0363 12.7172 26.9219 12.6074 26.9219 12.4561ZM27.1792 12.6624C27.2937 12.6624 27.3935 12.566 27.3935 12.4563C27.3935 12.3465 27.2935 12.2641 27.1792 12.2641C27.0789 12.2641 26.9791 12.3465 26.9791 12.4563C26.9791 12.566 27.0791 12.6624 27.1792 12.6624ZM27.1506 12.5799H27.0934V12.3464H27.1934C27.2079 12.3464 27.2365 12.3464 27.2506 12.3603C27.2792 12.3739 27.2792 12.3878 27.2792 12.4152C27.2792 12.4427 27.2651 12.4702 27.2365 12.4702L27.2937 12.5801H27.222L27.1934 12.4838H27.1506V12.5799V12.4425H27.2079C27.222 12.4425 27.222 12.4286 27.222 12.4151C27.222 12.4012 27.222 12.4012 27.2079 12.3876H27.1506V12.5799Z" fill="#E9B040"/>
<path fill-rule="evenodd" clip-rule="evenodd" d="M16.8657 7.15534C16.8371 6.86698 16.7798 6.59236 16.7226 6.30383H11.6599C11.7171 6.01547 11.803 5.74085 11.8886 5.46607H16.4796C16.3799 5.17696 16.2654 4.89277 16.1364 4.61457H12.2463C12.3894 4.32367 12.5469 4.03951 12.7183 3.76307H15.6503C15.4616 3.46976 15.2513 3.18979 15.0211 2.9253H13.3476C13.6065 2.62174 13.8885 2.33712 14.1914 2.0738C12.7185 0.796546 10.7734 0 8.62813 0C4.066 0 0.347656 3.58462 0.347656 8.00668C0.347656 12.4153 4.066 15.9998 8.62813 15.9998C10.7734 15.9998 12.7183 15.2168 14.1914 13.926C14.4897 13.6673 14.767 13.3871 15.0211 13.0881H13.3476C13.1187 12.8134 12.9186 12.5388 12.7183 12.2365H15.6503C15.8346 11.965 15.9972 11.6803 16.1365 11.385H12.2463C12.1176 11.1104 11.989 10.8358 11.8886 10.5471H16.4796C16.5795 10.2725 16.6512 9.9843 16.7224 9.69562C16.7797 9.421 16.8369 9.1328 16.8655 8.84412C16.8945 8.56568 16.9089 8.28602 16.9086 8.00619C16.9086 7.71832 16.8943 7.42996 16.8657 7.15534Z" fill="#CC2131"/>
<path fill-rule="evenodd" clip-rule="evenodd" d="M26.9219 9.86033C26.9219 9.70936 27.0363 9.59961 27.1792 9.59961C27.3364 9.59961 27.4507 9.70952 27.4507 9.86033C27.4507 9.99772 27.3363 10.1214 27.1792 10.1214C27.0363 10.1214 26.9219 9.99756 26.9219 9.86033ZM27.1792 10.0525C27.2937 10.0525 27.3935 9.97008 27.3935 9.86033C27.3935 9.75058 27.2935 9.66814 27.1792 9.66814C27.0789 9.66814 26.9791 9.75058 26.9791 9.86033C26.9791 9.97008 27.0791 10.0525 27.1792 10.0525ZM27.1506 9.97008H27.0934V9.75042H27.2506C27.2792 9.76432 27.2792 9.7918 27.2792 9.81927C27.2792 9.83285 27.2651 9.86033 27.2365 9.87423L27.2937 9.97024H27.222L27.1934 9.88781H27.1506V9.97008V9.84659H27.1792C27.1934 9.84659 27.2079 9.84659 27.2079 9.83269C27.222 9.83269 27.222 9.81911 27.222 9.80521C27.222 9.80521 27.222 9.79163 27.2079 9.79163C27.2079 9.77773 27.1934 9.79163 27.1792 9.79163H27.1506V9.97008Z" fill="white"/>
<path fill-rule="evenodd" clip-rule="evenodd" d="M11.3722 10.3136C11.1006 10.3821 10.9003 10.4235 10.7001 10.4235C10.2711 10.4235 10.0136 10.1624 10.0136 9.69548C10.0136 9.59946 10.0279 9.50329 10.0422 9.39338L10.0994 9.0777L10.1423 8.81666L10.5285 6.56441H11.3865L11.2864 7.05886H11.8299L11.7011 7.88288H11.1576L10.9289 9.22867C10.9146 9.29753 10.9146 9.33858 10.9146 9.36606C10.9146 9.54467 11.0004 9.6132 11.2149 9.6132C11.315 9.6132 11.4007 9.59963 11.4865 9.58572L11.3722 10.3136ZM14.1468 10.2861C13.8322 10.3685 13.5463 10.4096 13.2315 10.4096C12.2589 10.4096 11.7011 9.91514 11.7011 8.94031C11.7011 7.80028 12.3591 6.97626 13.2743 6.97626C14.0036 6.97626 14.4755 7.44323 14.4755 8.17092C14.4755 8.41838 14.4469 8.65179 14.3756 8.98136H12.5878C12.5735 9.03632 12.5735 9.0638 12.5735 9.09128C12.5735 9.47581 12.8452 9.668 13.3601 9.668C13.689 9.668 13.975 9.59946 14.2897 9.46223L14.1468 10.2861ZM13.6176 8.32221V8.15734C13.6176 7.88272 13.4602 7.73159 13.1886 7.73159C12.9024 7.73159 12.7023 7.93751 12.6165 8.32205H13.6176V8.32221ZM4.5075 10.3546H3.6208L4.13568 7.2373L2.97731 10.3546H2.36244L2.2909 7.25104L1.7474 10.3546H0.875L1.57571 6.30337H2.87716L2.90577 8.80308L3.77817 6.30337H5.20838L4.5075 10.3546ZM6.66721 8.88535C6.58137 8.87145 6.55275 8.87145 6.49552 8.87145C5.98063 8.87145 5.72327 9.06364 5.72327 9.3659C5.72327 9.57199 5.85204 9.70938 6.05217 9.70938C6.48122 9.70938 6.65273 9.3659 6.66721 8.88535ZM7.38223 10.3546H6.60998L6.62429 10.0115C6.42399 10.2722 6.15232 10.4096 5.68035 10.4096C5.25131 10.4096 4.87949 10.039 4.87949 9.50329C4.87949 9.35232 4.9081 9.21509 4.95102 9.0777C5.09393 8.56935 5.62312 8.25368 6.43829 8.23977C6.53844 8.23977 6.69565 8.23977 6.83873 8.25368C6.86717 8.14376 6.86717 8.10238 6.86717 8.03385C6.86717 7.81402 6.68135 7.74533 6.26661 7.74533C6.00925 7.74533 5.7231 7.78655 5.52297 7.85524L5.39421 7.88272L5.33698 7.8963L5.46574 7.15471C5.88048 7.03106 6.18076 6.97626 6.50983 6.97626C7.28208 6.97626 7.69682 7.31958 7.69682 7.95125C7.69682 8.11612 7.71113 8.23977 7.6539 8.59683L7.45376 9.77791L7.42515 9.984L7.41084 10.1489L7.39654 10.2588L7.38223 10.3546ZM18.4659 7.08617C18.7233 7.08617 18.9522 7.15487 19.2668 7.30584L19.424 6.42686C19.3381 6.38564 19.3095 6.38564 19.1952 6.34442L18.8379 6.24825C18.7234 6.22077 18.5805 6.20703 18.423 6.20703C17.9795 6.20703 17.7221 6.22077 17.4506 6.3719C17.3075 6.46807 17.1215 6.59173 16.9212 6.81139L16.8068 6.78391L15.8914 7.40185L15.9345 7.05853H14.9904L14.433 10.3545H15.3341L15.6629 8.58309C15.6629 8.58309 15.7918 8.33563 15.8489 8.25351C16.0206 8.04743 16.1635 8.04743 16.3493 8.04743H16.421C16.391 8.25673 16.3766 8.46783 16.3779 8.6791C16.3779 9.75027 17.0071 10.4233 17.9796 10.4233C18.2228 10.4233 18.4376 10.3958 18.7663 10.3134L18.9239 9.37964C18.6379 9.53061 18.3804 9.5993 18.1658 9.5993C17.6368 9.5993 17.3218 9.21477 17.3218 8.61057C17.3215 7.71785 17.7936 7.08617 18.4659 7.08617ZM26.0596 6.30337L25.8597 7.45697C25.6451 7.14113 25.3875 6.99 25.0443 6.99C24.5722 6.99 24.129 7.25088 23.8572 7.74533V7.73175L23.2852 7.40201L23.3424 7.05869H22.3842L21.8407 10.3546H22.7274L23.0279 8.58325C23.0279 8.58325 23.2566 8.33579 23.3138 8.25368C23.4569 8.08881 23.5998 8.06117 23.7143 8.04759C23.6143 8.32221 23.5571 8.65179 23.5571 9.02274C23.5571 9.84677 24.0002 10.396 24.658 10.396C24.9871 10.396 25.2445 10.2861 25.4875 10.0251L25.4448 10.3546H26.2887L26.9751 6.30337H26.0596ZM24.9586 9.57199C24.6582 9.57199 24.501 9.35232 24.501 8.92641C24.501 8.28083 24.787 7.81402 25.2015 7.81402C25.5161 7.81402 25.6737 8.04759 25.6737 8.4596C25.6737 9.11876 25.3877 9.57199 24.9586 9.57199ZM20.8257 8.88535C20.7399 8.87145 20.7113 8.87145 20.654 8.87145C20.1388 8.87145 19.8815 9.06364 19.8815 9.3659C19.8815 9.57199 20.0104 9.70938 20.2105 9.70938C20.6396 9.70938 20.8113 9.3659 20.8257 8.88535ZM21.5408 10.3546H20.754L20.7826 10.0115C20.5825 10.2722 20.3105 10.4096 19.8389 10.4096C19.3954 10.4096 19.0094 10.0525 19.0094 9.50329C19.0094 8.72064 19.6241 8.23994 20.5967 8.23994C20.697 8.23994 20.854 8.23994 20.9829 8.25384C21.0116 8.14392 21.026 8.10255 21.026 8.03401C21.026 7.81419 20.84 7.74549 20.411 7.74549C20.1678 7.74549 19.8675 7.78671 19.6674 7.8554L19.5529 7.88288L19.4957 7.89646L19.6243 7.15487C20.0392 7.03122 20.3396 6.97642 20.6684 6.97642C21.4406 6.97642 21.841 7.31974 21.841 7.95142C21.841 8.11628 21.8696 8.23994 21.7983 8.59699L21.6123 9.77807L21.5837 9.98416L21.5551 10.149L21.5409 10.2589V10.3546H21.5408ZM9.25562 7.75907C9.42731 7.75907 9.67036 7.77281 9.92789 7.81402L10.0567 7.04496C9.79913 7.01748 9.45592 6.97626 9.25562 6.97626C8.25463 6.97626 7.92573 7.49819 7.92573 8.10238C7.92573 8.50082 8.11156 8.78902 8.59783 9.00868C8.95534 9.17355 9.01257 9.20087 9.01257 9.35216C9.01257 9.55792 8.82675 9.68174 8.48338 9.68174C8.21171 9.68174 7.95418 9.64036 7.6682 9.54434L7.56805 10.2995L7.58219 10.3134L7.75388 10.3409C7.81111 10.3545 7.88264 10.3684 7.98279 10.3819C8.19723 10.3958 8.38323 10.4094 8.49768 10.4094C9.49885 10.4094 9.91358 10.0388 9.91358 9.31078C9.91358 8.85771 9.68467 8.58309 9.24132 8.39091C8.85519 8.22587 8.81227 8.19872 8.81227 8.04743C8.81227 7.89646 8.98396 7.75907 9.25562 7.75907Z" fill="#1B3771"/>
<path fill-rule="evenodd" clip-rule="evenodd" d="M19.6688 6.16686L19.5112 7.04584C19.1967 6.89471 18.9677 6.82618 18.7104 6.82618C18.0381 6.82618 17.5663 7.45786 17.5663 8.35058C17.5663 8.96867 17.8809 9.33931 18.4103 9.33931C18.6245 9.33931 18.8821 9.27077 19.168 9.13354L19.0108 10.0534C18.6818 10.1359 18.4673 10.1772 18.2241 10.1772C17.2517 10.1772 16.651 9.50418 16.651 8.41943C16.651 6.97731 17.4805 5.96094 18.6675 5.96094C18.8247 5.96094 18.9676 5.97468 19.082 6.00215L19.4397 6.08459C19.5543 6.12581 19.583 6.13955 19.6688 6.16686ZM16.7798 6.77122H16.6939C16.3938 6.77122 16.2221 6.90861 15.9503 7.30672L16.0361 6.79854H15.2208L14.6633 10.0946H15.5645C15.8932 8.07579 15.9791 7.73248 16.4081 7.73248H16.4653C16.5512 7.3342 16.6655 7.04568 16.8085 6.7848L16.7798 6.77122ZM11.6028 10.0534C11.3597 10.1359 11.1594 10.1633 10.9593 10.1633C10.5016 10.1633 10.2441 9.91619 10.2441 9.43564C10.2441 9.35321 10.2584 9.24346 10.2727 9.14712L10.3299 8.81754L10.3728 8.55682L10.759 6.30425H11.6457L11.5455 6.7987H12.0032L11.8887 7.60899H11.4311L11.188 8.98241C11.1737 9.03737 11.1737 9.07875 11.1737 9.11981C11.1737 9.28467 11.2596 9.35337 11.474 9.35337C11.5741 9.35337 11.6598 9.35337 11.717 9.32589L11.6028 10.0534ZM8.15608 7.84239C8.15608 8.25456 8.35621 8.54276 8.82818 8.76259C9.2 8.92746 9.25723 8.98225 9.25723 9.11964C9.25723 9.32573 9.09985 9.42174 8.74234 9.42174C8.47067 9.42174 8.22745 9.38069 7.94147 9.29825L7.81271 10.0534L7.85563 10.0673L8.01301 10.0948C8.07007 10.1084 8.14177 10.1223 8.25606 10.1223C8.4562 10.1498 8.62788 10.1498 8.74234 10.1498C9.6861 10.1498 10.1296 9.80628 10.1296 9.05111C10.1296 8.59772 9.9438 8.33667 9.50045 8.13091C9.11433 7.96604 9.0714 7.92499 9.0714 7.77386C9.0714 7.59541 9.22878 7.51297 9.51476 7.51297C9.68644 7.51297 9.9295 7.52671 10.1584 7.55419L10.287 6.79886C10.0583 6.75764 9.70075 6.73017 9.50045 6.73017C8.49929 6.73 8.14177 7.23819 8.15608 7.84239ZM26.5192 10.0948H25.6753L25.7184 9.7788C25.4751 10.0259 25.2176 10.1359 24.8885 10.1359C24.2308 10.1359 23.8017 9.60051 23.8017 8.77649C23.8017 7.67768 24.474 6.74374 25.2604 6.74374C25.618 6.74374 25.8754 6.89487 26.1188 7.19697L26.3189 6.04337H27.2056L26.5192 10.0948ZM25.2033 9.32573C25.6182 9.32573 25.9042 8.85876 25.9042 8.21318C25.9042 7.78743 25.7466 7.56761 25.4321 7.56761C25.0316 7.56761 24.7315 8.02084 24.7315 8.66641C24.7315 9.10607 24.8887 9.32573 25.2033 9.32573ZM14.3486 10.0259C14.0338 10.1223 13.7478 10.1633 13.4189 10.1633C12.4178 10.1633 11.9029 9.65531 11.9029 8.68015C11.9029 7.55403 12.5608 6.71627 13.4618 6.71627C14.2055 6.71627 14.6773 7.18323 14.6773 7.91108C14.6773 8.15839 14.6487 8.39196 14.5628 8.73511H12.7897C12.7754 8.77649 12.7754 8.80397 12.7754 8.83144C12.7754 9.21598 13.0473 9.40816 13.562 9.40816C13.8909 9.40816 14.1769 9.35321 14.4916 9.20208L14.3486 10.0259ZM13.848 8.06205V7.89735C13.848 7.62272 13.6906 7.4716 13.4189 7.4716C13.133 7.4716 12.9327 7.67768 12.8468 8.06205H13.848ZM4.73802 10.0948H3.85131L4.3662 6.97715L3.20783 10.0948H2.59279L2.52125 7.00463L1.97792 10.0948H1.14844L1.84915 6.04337H3.13629L3.17921 8.55666L4.03714 6.04337H5.43873L4.73802 10.0948ZM6.95479 8.6252C6.86894 8.6252 6.82602 8.61162 6.75449 8.61162C6.2539 8.61162 5.99654 8.79007 5.99654 9.11964C5.99654 9.32573 6.111 9.44922 6.31113 9.44922C6.68295 9.44922 6.94048 9.11964 6.95479 8.6252ZM7.61258 10.0948H6.86877L6.88308 9.75132C6.65417 10.0259 6.35389 10.1498 5.93915 10.1498C5.45287 10.1498 5.12397 9.7927 5.12397 9.25703C5.12397 8.44691 5.69592 7.97994 6.69709 7.97994C6.79724 7.97994 6.926 7.99368 7.06891 8.00726C7.09752 7.89751 7.09752 7.85629 7.09752 7.80133C7.09752 7.58167 6.94014 7.49923 6.5254 7.49923C6.26804 7.49923 5.9819 7.52671 5.78177 7.58167L5.653 7.62289L5.56716 7.63663L5.69592 6.89504C6.13928 6.77138 6.43956 6.73017 6.76862 6.73017C7.54087 6.73017 7.95561 7.05974 7.95561 7.69142C7.95561 7.85629 7.94131 7.97994 7.88408 8.35074L7.68378 9.51824L7.65516 9.724L7.64086 9.88887L7.62655 10.0127L7.61258 10.0948ZM21.1133 8.6252C21.013 8.6252 20.9702 8.61162 20.9132 8.61162C20.3983 8.61162 20.1406 8.79007 20.1406 9.11964C20.1406 9.32573 20.2695 9.44922 20.4697 9.44922C20.8273 9.44922 21.0988 9.11964 21.1133 8.6252ZM21.7711 10.0948H21.0275L21.0416 9.75132C20.8129 10.0259 20.5126 10.1498 20.0978 10.1498C19.6116 10.1498 19.2825 9.7927 19.2825 9.25703C19.2825 8.44691 19.8545 7.97994 20.8556 7.97994C20.9559 7.97994 21.0847 7.99368 21.2133 8.00726C21.2419 7.89751 21.2564 7.85629 21.2564 7.80133C21.2564 7.58167 21.0988 7.49923 20.6844 7.49923C20.4267 7.49923 20.1266 7.52671 19.9263 7.58167L19.8119 7.62289L19.726 7.63663L19.8546 6.89504C20.2981 6.77138 20.5983 6.73017 20.9273 6.73017C21.6996 6.73017 22.1 7.05974 22.1 7.69142C22.1 7.85629 22.1 7.97994 22.0286 8.35074L21.8426 9.51824L21.814 9.724L21.7854 9.88887L21.7713 10.0127V10.0948H21.7711ZM24.1737 6.77122H24.0879C23.7877 6.77122 23.6161 6.90861 23.3442 7.30672L23.4301 6.79854H22.6147L22.0712 10.0946H22.9579C23.287 8.07579 23.3728 7.73248 23.8019 7.73248H23.8591C23.945 7.3342 24.0592 7.04568 24.2023 6.7848L24.1737 6.77122Z" fill="white"/>
</svg>
