<svg width="52" height="16" viewBox="0 0 52 16" fill="none" xmlns="http://www.w3.org/2000/svg">
<path d="M22.2637 15.7331H18.0731L20.6921 0.276193H24.8832L22.2637 15.7331ZM14.5477 0.276193L10.5525 10.9076L10.0798 8.61822L10.0802 8.61905L8.67013 1.66791C8.67013 1.66791 8.49963 0.276193 6.68225 0.276193H0.0775004L0 0.537915C0 0.537915 2.01974 0.941454 4.3835 2.30464L8.02429 15.7335H12.3906L19.0578 0.276193H14.5477ZM47.509 15.7331H51.3569L48.002 0.27578H44.6333C43.0777 0.27578 42.6988 1.42769 42.6988 1.42769L36.4488 15.7331H40.8172L41.6908 13.4371H47.0181L47.509 15.7331ZM42.8977 10.2655L45.0996 4.48111L46.3383 10.2655H42.8977ZM36.7765 3.99322L37.3745 0.673944C37.3745 0.673944 35.5291 0 33.6054 0C31.5258 0 26.5873 0.87282 26.5873 5.11702C26.5873 9.11024 32.3835 9.15986 32.3835 11.2574C32.3835 13.3549 27.1845 12.979 25.4687 11.6563L24.8457 15.127C24.8457 15.127 26.7169 15.9998 29.5758 15.9998C32.4356 15.9998 36.7498 14.5779 36.7498 10.7079C36.7498 6.689 30.9015 6.31482 30.9015 4.56753C30.902 2.81982 34.9832 3.04433 36.7765 3.99322Z" fill="#2566AF"/>
</svg>
