<svg width="27" height="16" viewBox="0 0 27 16" fill="none" xmlns="http://www.w3.org/2000/svg">
<path fill-rule="evenodd" clip-rule="evenodd" d="M0.677547 15.7616H0.594919C0.594919 15.7221 0.574225 15.6626 0.574225 15.6426C0.574225 15.6229 0.574225 15.5834 0.512141 15.5834H0.387975V15.7616H0.325891V15.3453H0.512141C0.594919 15.3453 0.656852 15.3653 0.656852 15.4444C0.656852 15.5039 0.636158 15.5239 0.615613 15.5434C0.636308 15.5634 0.656852 15.5832 0.656852 15.6229V15.7021C0.656852 15.7221 0.656852 15.7221 0.677547 15.7221V15.7616ZM0.594919 15.4643C0.594919 15.4048 0.55353 15.4048 0.532836 15.4048H0.387975V15.5239H0.512141C0.55353 15.5239 0.594919 15.5039 0.594919 15.4643ZM0.946574 15.5436C0.946574 15.3058 0.73978 15.1073 0.470752 15.1073C0.222569 15.1073 0.015625 15.3058 0.015625 15.5436C0.015625 15.8013 0.222569 15.9998 0.470752 15.9998C0.73963 15.9996 0.946574 15.8013 0.946574 15.5436ZM0.884491 15.5436C0.884491 15.7617 0.698391 15.9203 0.470752 15.9203C0.243114 15.9203 0.0777083 15.7616 0.0777083 15.5436C0.0777083 15.3453 0.243264 15.1668 0.470752 15.1668C0.698241 15.1668 0.884491 15.3453 0.884491 15.5436ZM26.3707 11.0237C26.3707 11.6186 25.9777 11.8959 25.2742 11.8959H23.9298V11.301H25.2742C25.3984 11.301 25.5019 11.2813 25.5434 11.2417C25.5846 11.2019 25.626 11.1424 25.626 11.0632C25.626 10.9837 25.5848 10.9045 25.5434 10.865C25.5019 10.8252 25.4192 10.8055 25.2951 10.8055C24.654 10.7855 23.8471 10.8252 23.8471 9.95283C23.8471 9.55611 24.1159 9.11987 24.8399 9.11987H26.2259V9.7148H24.9433C24.8194 9.7148 24.7365 9.7148 24.6744 9.75433C24.6123 9.81384 24.5711 9.87335 24.5711 9.97253C24.5711 10.0717 24.6331 10.1312 24.7158 10.171C24.7987 10.1907 24.8815 10.2106 24.9849 10.2106H25.3572C25.7502 10.2106 25.9985 10.2898 26.1641 10.4288C26.288 10.5675 26.3707 10.7461 26.3707 11.0237ZM23.4539 10.4288C23.2883 10.2898 23.04 10.2106 22.6469 10.2106H22.2747C22.1714 10.2106 22.0885 10.1906 22.0059 10.171C21.9229 10.1312 21.8611 10.0717 21.8611 9.97253C21.8611 9.87335 21.8817 9.81384 21.9645 9.75433C22.0265 9.7148 22.1092 9.7148 22.2333 9.7148H23.5159V9.11987H22.13C21.3852 9.11987 21.1368 9.55611 21.1368 9.95283C21.1368 10.825 21.9438 10.7855 22.5851 10.8055C22.709 10.8055 22.7919 10.8252 22.8332 10.865C22.8744 10.9045 22.9161 10.9837 22.9161 11.0632C22.9161 11.1424 22.8746 11.2019 22.8332 11.2417C22.7711 11.2813 22.6885 11.301 22.5643 11.301H21.2196V11.8959H22.5643C23.2675 11.8959 23.6607 11.6185 23.6607 11.0237C23.6607 10.7461 23.578 10.5675 23.4539 10.4288ZM20.8059 11.3211H19.1719V10.7658H20.7646V10.2108H19.1719V9.69511H20.8059V9.12015H18.4892V11.896H20.8059V11.3211ZM17.7443 9.25901C17.5167 9.13999 17.2478 9.12001 16.8961 9.12001H15.3034V11.8959H16.0066V10.8847H16.7514C16.9995 10.8847 17.1445 10.9047 17.2479 11.0037C17.3721 11.1424 17.3721 11.3805 17.3721 11.559V11.8959H18.0546V11.3605C18.0546 11.1027 18.034 10.9837 17.9512 10.845C17.8892 10.7655 17.7653 10.6665 17.5997 10.607C17.7857 10.5478 18.0963 10.3097 18.0963 9.87335C18.0961 9.55626 17.9719 9.37773 17.7443 9.25901ZM13.8139 9.12001H11.6003L10.7107 10.0322L9.86257 9.12001H7.06988V11.8959H9.82133L10.7109 10.9837L11.5591 11.8959H12.9038V10.9642H13.7726C14.3725 10.9642 14.9726 10.8055 14.9726 10.0322C14.9724 9.2787 14.3518 9.12001 13.8139 9.12001ZM17.1857 10.2702C17.0824 10.3097 16.9789 10.3097 16.8547 10.3097L16.0066 10.3297V9.69497H16.8547C16.9789 9.69497 17.1031 9.69497 17.1857 9.75447C17.2686 9.79429 17.3304 9.87349 17.3304 9.99251C17.3304 10.1115 17.2686 10.2107 17.1857 10.2702ZM13.8139 10.4089H12.9036V9.69497H13.8139C14.0622 9.69497 14.2276 9.79429 14.2276 10.0322C14.2276 10.2702 14.062 10.4089 13.8139 10.4089ZM11.1452 10.508L12.2208 9.41755V11.6582L11.1452 10.508ZM9.46953 11.3211H7.75249V10.7658H9.28328V10.2108H7.75249V9.69511H9.49022L10.2556 10.5081L9.46953 11.3211ZM24.4467 7.11729H23.4539L22.1506 5.03523V7.11729H20.7441L20.4749 6.50252H19.0269L18.758 7.11729H17.9511C17.6201 7.11729 17.1857 7.03795 16.9377 6.79992C16.71 6.56203 16.5859 6.2448 16.5859 5.74904C16.5859 5.33263 16.6479 4.95589 16.9581 4.65849C17.1649 4.4403 17.5374 4.34126 18.013 4.34126H18.6749V4.9362H18.013C17.765 4.9362 17.62 4.97587 17.4753 5.09489C17.3511 5.2139 17.289 5.43195 17.289 5.72935C17.289 6.02674 17.3511 6.24494 17.4753 6.38379C17.5786 6.48283 17.765 6.5225 17.9509 6.5225H18.2614L19.2542 4.3414H20.2887L21.4471 6.95875V4.34126H22.5229L23.7434 6.26463V4.34126H24.4466L24.4467 7.11729ZM16.2342 4.34126H15.531V7.11729H16.2342V4.34126ZM14.7654 4.46028C14.5377 4.34126 14.2897 4.34126 13.938 4.34126H12.345V7.11729H13.0276V6.10595H13.7723C14.0207 6.10595 14.1862 6.12578 14.2895 6.22496C14.4137 6.36381 14.3929 6.60184 14.3929 6.76039V7.11729H15.096V6.56203C15.096 6.32414 15.0755 6.20513 14.9721 6.06627C14.9101 5.98693 14.7859 5.88775 14.6412 5.82838C14.8271 5.74904 15.1377 5.53099 15.1377 5.09474C15.1379 4.77751 14.9928 4.59899 14.7654 4.46028ZM11.8485 6.54234H10.2349V5.98707H11.8278V5.41212H10.2349V4.91636H11.8485V4.3414H9.53161V7.11744H11.8485V6.54234ZM9.0144 4.34126H7.87666L7.02849 6.22496L6.11823 4.34126H5.00118V6.9586L3.82205 4.34126H2.78778L1.54656 7.11729H2.29126L2.56014 6.50252H4.00815L4.27703 7.11729H5.6838V4.9362L6.69738 7.11729H7.29721L8.31094 4.9362V7.11729H9.01425L9.0144 4.34126ZM20.2269 5.90773L19.7509 4.81718L19.2752 5.90773H20.2269ZM14.2276 5.47162C14.1243 5.53113 14.0208 5.53113 13.8759 5.53113H13.0276V4.9165H13.8758C14 4.9165 14.1445 4.9165 14.2274 4.95618C14.3101 5.01568 14.3516 5.09503 14.3516 5.2139C14.3516 5.33277 14.3102 5.43181 14.2276 5.47162ZM2.80832 5.90773L3.28414 4.81718L3.75997 5.90773H2.80832ZM26.1641 0H1.48448L1.52572 5.63017L2.37389 3.78614H4.17356L4.42189 4.24223V3.78614H6.53197L7.00779 4.77751L7.46292 3.78614H14.1862C14.4963 3.78614 14.7652 3.84565 14.9723 4.00419V3.78614H16.8134V4.00419C17.1235 3.8455 17.5165 3.78614 17.9718 3.78614H20.6403L20.8887 4.24223V3.78614H22.8539L23.1436 4.24223V3.78614H25.0673V7.67256H23.1229L22.7507 7.07776V7.67256H20.3302L20.0613 7.03809H19.4612L19.1923 7.67256H17.9306C17.434 7.67256 17.0615 7.55354 16.8135 7.43467V7.67256H13.8139V6.78022C13.8139 6.66121 13.7932 6.64137 13.7104 6.64137H13.6071V7.67241H7.81457V7.17666L7.60778 7.67241H6.38726L6.18047 7.19649V7.67241H3.84274L3.59456 7.03795H2.99457L2.7257 7.67241H1.52572V15.418H26.2053V12.2726C25.9364 12.3917 25.5639 12.4512 25.1916 12.4512H23.3918V12.2131C23.185 12.372 22.8125 12.4512 22.461 12.4512H16.7927V11.559C16.7927 11.44 16.7721 11.44 16.6685 11.44H16.5652V12.4512H14.7033V11.4003C14.3932 11.539 14.0413 11.539 13.7311 11.539H13.5241V12.4512H11.2486L10.7109 11.8562L10.1111 12.4512H6.44919V8.56489H10.1728L10.7107 9.15954L11.29 8.56489H13.7932C14.0826 8.56489 14.5586 8.60442 14.7654 8.80263V8.56489H16.9995C17.2271 8.56489 17.6617 8.60442 17.9511 8.80263V8.56489H21.3231V8.80278C21.5093 8.64409 21.8611 8.56503 22.1713 8.56503H24.0537V8.80278C24.2608 8.66407 24.5502 8.56503 24.9227 8.56503H26.2053L26.1641 0Z" fill="#0077A6"/>
</svg>
