<svg width="28" height="16" viewBox="0 0 28 16" fill="none" xmlns="http://www.w3.org/2000/svg">
<path fill-rule="evenodd" clip-rule="evenodd" d="M14.1795 13.9291C15.0377 13.1772 15.7229 12.2614 16.191 11.2403C16.6591 10.2192 16.8998 9.11546 16.8977 7.99982C16.8999 6.88417 16.6592 5.78041 16.1911 4.75933C15.7229 3.73825 15.0378 2.82239 14.1795 2.0705C12.7118 0.783992 10.7649 0 8.62848 0C4.06172 0 0.359375 3.58159 0.359375 7.99982C0.359375 12.4179 4.06172 15.9996 8.62848 15.9996C10.7649 15.9996 12.712 15.2156 14.1795 13.9291Z" fill="#3A9BD9"/>
<path fill-rule="evenodd" clip-rule="evenodd" d="M19.7317 0C17.5952 0 15.648 0.783992 14.1807 2.0705C13.8814 2.33308 13.6024 2.61615 13.3458 2.91749H15.015C15.2441 3.18645 15.4548 3.46942 15.6458 3.76461H12.7154C12.539 4.03758 12.3798 4.32047 12.2387 4.61174H16.1218C16.2555 4.88742 16.3726 5.17021 16.4727 5.45872H11.8885C11.7924 5.73661 11.7122 6.01937 11.6484 6.30571H16.7129C16.8369 6.86254 16.8993 7.4304 16.8991 7.99982C16.8991 8.88795 16.749 9.74245 16.4729 10.5408H11.8885C11.9882 10.8294 12.1051 11.1122 12.2387 11.3879H16.1218C15.9809 11.6792 15.8219 11.9621 15.6457 12.235H12.7154C12.9062 12.5302 13.1167 12.8132 13.3457 13.0821H15.015C14.7587 13.3836 14.4799 13.6668 14.1807 13.9293C15.648 15.2158 17.5952 15.9998 19.7317 15.9998C24.2983 15.9998 28.0008 12.418 28.0008 7.99996C28.0008 3.58159 24.2983 0 19.7317 0Z" fill="#CC2131"/>
<path fill-rule="evenodd" clip-rule="evenodd" d="M26.8984 12.4597C26.8984 12.3169 27.018 12.2012 27.1657 12.2012C27.3131 12.2012 27.4327 12.3169 27.4327 12.4597C27.4327 12.6021 27.3131 12.7179 27.1657 12.7179C27.0946 12.7176 27.0265 12.6903 26.9764 12.6419C26.9263 12.5935 26.8982 12.5279 26.8984 12.4597ZM27.1656 12.6557C27.2775 12.6557 27.3684 12.5682 27.3684 12.4595C27.3684 12.3508 27.2775 12.263 27.1656 12.263C27.0533 12.263 26.9624 12.3508 26.9624 12.4595C26.9624 12.5682 27.0534 12.6557 27.1656 12.6557ZM27.1295 12.5729H27.0747V12.3456H27.174C27.1945 12.3456 27.2155 12.3462 27.2337 12.3572C27.2431 12.3636 27.2508 12.3721 27.256 12.382C27.2612 12.3919 27.2638 12.4029 27.2636 12.414C27.2636 12.4395 27.2481 12.4636 27.223 12.4727L27.2663 12.5727H27.2054L27.1697 12.4829H27.1297V12.5729V12.4443H27.1599C27.1709 12.4443 27.1833 12.4449 27.1932 12.4397C27.1976 12.4368 27.2011 12.4329 27.2036 12.4283C27.206 12.4237 27.2072 12.4187 27.2071 12.4136C27.2069 12.409 27.2056 12.4045 27.2033 12.4005C27.201 12.3965 27.1977 12.3931 27.1938 12.3906C27.1843 12.385 27.1689 12.3865 27.1586 12.3865H27.1298V12.5729H27.1295Z" fill="#CC2131"/>
<path fill-rule="evenodd" clip-rule="evenodd" d="M25.155 9.73322C25.155 9.59049 25.2745 9.47472 25.4219 9.47472C25.5694 9.47472 25.6889 9.59049 25.6889 9.73322C25.6889 9.87594 25.5694 9.99142 25.4219 9.99142C25.2745 9.99142 25.155 9.8758 25.155 9.73322ZM25.4218 9.92928C25.5338 9.92928 25.6246 9.84146 25.6246 9.73307C25.6246 9.6244 25.5338 9.53658 25.4218 9.53658C25.3095 9.53658 25.2189 9.6244 25.2189 9.73307C25.2189 9.84146 25.3097 9.92928 25.4218 9.92928ZM25.3857 9.84643H25.3309V9.61943H25.4302C25.4508 9.61943 25.472 9.61972 25.4899 9.63107C25.4993 9.6374 25.507 9.64587 25.5122 9.65571C25.5175 9.66556 25.5201 9.67648 25.5199 9.68753C25.5199 9.71335 25.5045 9.73719 25.4793 9.74627L25.5226 9.84629H25.462L25.4259 9.75648H25.3859V9.84643V9.71789H25.4162C25.4274 9.71789 25.4398 9.71874 25.4494 9.71349C25.4538 9.71055 25.4573 9.70664 25.4597 9.70209C25.4621 9.69754 25.4634 9.6925 25.4633 9.68739C25.4632 9.68277 25.4619 9.67824 25.4596 9.67419C25.4573 9.67014 25.454 9.66668 25.45 9.66412C25.4406 9.65887 25.4252 9.66001 25.4151 9.66001H25.386V9.84643H25.3857ZM7.60062 9.99142H6.57147L7.18311 6.87361L5.77487 9.99142H4.83643L4.6649 6.89149L4.05134 9.99142H3.11719L3.91542 5.93569H5.52134L5.60629 8.44656L6.73857 5.93569H8.41201L7.60062 9.99142ZM19.1023 9.95099C18.8207 10.0258 18.6005 10.058 18.3627 10.058C17.8361 10.058 17.5486 9.80245 17.5486 9.3337C17.5486 9.24091 17.5593 9.14217 17.5789 9.03775L17.6416 8.71527L17.6897 8.45423L18.1668 5.93555H19.1903L19.042 6.69301H19.5672L19.4261 7.49488H18.8987L18.6274 8.87105C18.6174 8.916 18.6115 8.96172 18.6098 9.00767C18.6098 9.17806 18.7164 9.25212 18.961 9.25212C19.0782 9.25212 19.169 9.24191 19.2386 9.22134L19.1023 9.95099ZM22.1082 6.72011C22.0219 6.68719 22.0016 6.68719 21.9916 6.6845C21.9371 6.67286 21.908 6.66605 21.9029 6.6652C21.8688 6.65946 21.8341 6.65671 21.7994 6.65697C21.4615 6.65697 21.2179 6.80254 20.9029 7.19255L20.9938 6.69273H20.0617L19.4344 9.99128H20.4643C20.8327 7.97398 20.9905 7.62072 21.4845 7.62072C21.5218 7.62072 21.5648 7.62356 21.6147 7.62909L21.735 7.65278L22.1082 6.72011ZM15.0224 7.73507C15.0224 8.15175 15.2652 8.43876 15.8154 8.65441C16.237 8.82012 16.3022 8.86864 16.3022 9.01846C16.3022 9.22375 16.1163 9.31639 15.7046 9.31639C15.3937 9.31639 15.1049 9.27596 14.7714 9.18587L14.6286 9.94674L14.6747 9.95425L14.8654 9.98802C14.9269 9.99824 15.0174 10.008 15.1375 10.0168C15.3851 10.0354 15.5768 10.0442 15.7118 10.0442C16.8104 10.0442 17.3179 9.6959 17.3179 8.94355C17.3179 8.49083 17.1057 8.22538 16.584 8.02549C16.1475 7.8585 16.0969 7.82147 16.0969 7.66754C16.0969 7.48977 16.2701 7.3984 16.6065 7.3984C16.8111 7.3984 17.0901 7.41699 17.3547 7.44792L17.503 6.68435C17.2335 6.64889 16.8246 6.6198 16.5869 6.6198C15.4221 6.61994 15.0189 7.12672 15.0224 7.73507ZM10.9463 9.99142H10.0911L10.111 9.64951C9.85054 9.9202 9.50336 10.0485 9.03148 10.0485C8.47376 10.0485 8.09097 9.68101 8.09097 9.14756C8.09097 8.34399 8.75594 7.87567 9.89885 7.87567C10.016 7.87567 10.1648 7.8846 10.3181 7.90106C10.35 7.79267 10.3588 7.74585 10.3588 7.68683C10.3588 7.46849 10.1793 7.38677 9.69867 7.38677C9.40481 7.38677 9.0727 7.42252 8.8434 7.4787L8.70084 7.51375L8.6085 7.53503L8.75122 6.79346C9.26431 6.66634 9.60293 6.61824 9.98336 6.61824C10.8679 6.61824 11.3353 6.95335 11.3353 7.58582C11.3353 7.74855 11.3198 7.87212 11.2517 8.23929L11.0366 9.40946L11.0004 9.61943L10.9741 9.78713L10.9565 9.9019L10.9463 9.99142ZM10.1955 8.5219C10.1192 8.51278 10.0424 8.50823 9.96548 8.50828C9.38221 8.50828 9.08673 8.67697 9.08673 9.01009C9.08673 9.21538 9.23092 9.34647 9.45593 9.34647C9.87551 9.34661 10.1778 9.00966 10.1955 8.5219ZM14.3226 9.9202C13.9789 10.0098 13.6242 10.0548 13.268 10.054C12.1175 10.0531 11.5178 9.54637 11.5178 8.57624C11.5178 7.44395 12.2807 6.6103 13.3164 6.6103C14.1636 6.6103 14.7047 7.0772 14.7047 7.80927C14.7047 8.0523 14.6677 8.28923 14.5783 8.62362H12.532C12.5257 8.65783 12.5224 8.69247 12.5221 8.72719C12.5221 9.10954 12.8272 9.30462 13.4249 9.30462C13.7925 9.30462 14.1248 9.24006 14.4937 9.09592L14.3226 9.9202ZM13.7745 7.95753C13.7801 7.88886 13.7831 7.83268 13.7831 7.78927C13.7831 7.52141 13.6027 7.36421 13.2963 7.36421C12.9689 7.36421 12.7347 7.57504 12.6397 7.95554L13.7745 7.95753ZM25.3073 8.49594C25.1532 9.59319 24.3612 10.0798 23.3082 10.0798C22.1439 10.0798 21.6737 9.39655 21.6737 8.55935C21.6737 7.39032 22.4701 6.59824 23.7002 6.59824C24.7679 6.59824 25.3348 7.24958 25.3348 8.08692C25.3348 8.29065 25.3345 8.30412 25.3073 8.49594ZM24.2474 8.07386C24.2474 7.72883 24.1026 7.40309 23.6807 7.40309C23.1555 7.40309 22.83 8.00364 22.83 8.53382C22.83 8.981 23.0531 9.28149 23.421 9.27511C23.644 9.27511 24.1198 8.98114 24.2139 8.4677C24.2359 8.34796 24.2474 8.21659 24.2474 8.07386Z" fill="white"/>
</svg>
