<svg width="35" height="21" viewBox="0 0 35 21" fill="none" xmlns="http://www.w3.org/2000/svg">
<path fill-rule="evenodd" clip-rule="evenodd" d="M1.32798 20.687H1.22072C1.22072 20.6351 1.19386 20.557 1.19386 20.5308C1.19386 20.5049 1.19386 20.453 1.11327 20.453H0.952089V20.687H0.8715V20.1406H1.11327C1.22072 20.1406 1.30111 20.1668 1.30111 20.2706C1.30111 20.3487 1.27425 20.3749 1.24758 20.4006C1.27444 20.4268 1.30111 20.4528 1.30111 20.5049V20.6089C1.30111 20.6351 1.30111 20.6351 1.32798 20.6351V20.687ZM1.22072 20.2968C1.22072 20.2187 1.16699 20.2187 1.14013 20.2187H0.952089V20.3749H1.11327C1.16699 20.3749 1.22072 20.3487 1.22072 20.2968ZM1.67719 20.4008C1.67719 20.0887 1.40876 19.8282 1.05954 19.8282C0.73738 19.8282 0.46875 20.0887 0.46875 20.4008C0.46875 20.739 0.73738 20.9996 1.05954 20.9996C1.40856 20.9994 1.67719 20.739 1.67719 20.4008ZM1.59661 20.4008C1.59661 20.6872 1.35503 20.8952 1.05954 20.8952C0.764048 20.8952 0.549339 20.687 0.549339 20.4008C0.549339 20.1406 0.764243 19.9063 1.05954 19.9063C1.35484 19.9063 1.59661 20.1406 1.59661 20.4008ZM34.6797 14.4685C34.6797 15.2493 34.1695 15.6133 33.2564 15.6133H31.5112V14.8324H33.2564C33.4175 14.8324 33.5518 14.8066 33.6058 14.7547C33.6593 14.7024 33.713 14.6243 33.713 14.5204C33.713 14.4161 33.6595 14.3121 33.6058 14.2602C33.5518 14.208 33.4446 14.1821 33.2834 14.1821C32.4512 14.1559 31.4038 14.208 31.4038 13.063C31.4038 12.5423 31.7528 11.9697 32.6926 11.9697H34.4917V12.7506H32.8267C32.666 12.7506 32.5583 12.7506 32.4777 12.8025C32.3971 12.8806 32.3436 12.9587 32.3436 13.0889C32.3436 13.219 32.4242 13.2971 32.5314 13.3494C32.6391 13.3752 32.7465 13.4013 32.8809 13.4013H33.364C33.8742 13.4013 34.1966 13.5052 34.4115 13.6876C34.5723 13.8697 34.6797 14.1042 34.6797 14.4685ZM30.8934 13.6876C30.6785 13.5052 30.3561 13.4013 29.8459 13.4013H29.3628C29.2287 13.4013 29.121 13.375 29.0138 13.3494C28.9061 13.2971 28.8259 13.219 28.8259 13.0889C28.8259 12.9587 28.8526 12.8806 28.96 12.8025C29.0406 12.7506 29.1479 12.7506 29.3091 12.7506H30.974V11.9697H29.1749C28.2081 11.9697 27.8857 12.5423 27.8857 13.063C27.8857 14.2078 28.9332 14.1559 29.7657 14.1821C29.9265 14.1821 30.0342 14.208 30.0877 14.2602C30.1412 14.3121 30.1953 14.4161 30.1953 14.5204C30.1953 14.6243 30.1414 14.7024 30.0877 14.7547C30.0071 14.8066 29.8998 14.8324 29.7387 14.8324H27.9932V15.6133H29.7387C30.6514 15.6133 31.1618 15.2492 31.1618 14.4685C31.1618 14.1042 31.0546 13.8697 30.8934 13.6876ZM27.4561 14.8588H25.3351V14.13H27.4026V13.4016H25.3351V12.7247H27.4561V11.9701H24.4488V15.6135H27.4561V14.8588ZM23.4819 12.1524C23.1864 11.9962 22.8374 11.9699 22.3809 11.9699H20.3135V15.6133H21.2262V14.2861H22.1931C22.5151 14.2861 22.7033 14.3123 22.8376 14.4423C22.9988 14.6243 22.9988 14.9367 22.9988 15.1711V15.6133H23.8847V14.9105C23.8847 14.5723 23.858 14.4161 23.7506 14.234C23.67 14.1297 23.5092 13.9997 23.2943 13.9216C23.5357 13.8439 23.9388 13.5314 23.9388 12.9587C23.9386 12.5425 23.7774 12.3082 23.4819 12.1524ZM18.3799 11.9699H15.5066L14.3518 13.1671L13.2508 11.9699H9.62571V15.6133H13.1973L14.352 14.416L15.453 15.6133H17.1985V14.3904H18.3264C19.105 14.3904 19.8841 14.1821 19.8841 13.1671C19.8839 12.1782 19.0782 11.9699 18.3799 11.9699ZM22.7568 13.4796C22.6227 13.5314 22.4884 13.5314 22.3272 13.5314L21.2262 13.5577V12.7246H22.3272C22.4884 12.7246 22.6496 12.7246 22.7568 12.8027C22.8645 12.8549 22.9447 12.9589 22.9447 13.1151C22.9447 13.2713 22.8645 13.4015 22.7568 13.4796ZM18.3799 13.6616H17.1983V12.7246H18.3799C18.7023 12.7246 18.917 12.8549 18.917 13.1671C18.917 13.4796 18.7021 13.6616 18.3799 13.6616ZM14.9158 13.7916L16.3121 12.3605V15.3012L14.9158 13.7916ZM12.7406 14.8588H10.5118V14.13H12.4989V13.4016H10.5118V12.7247H12.7675L13.7611 13.7918L12.7406 14.8588ZM32.1822 9.34139H30.8934L29.2016 6.6087V9.34139H27.3759L27.0265 8.5345H25.1469L24.7978 9.34139H23.7504C23.3208 9.34139 22.7568 9.23725 22.4349 8.92483C22.1394 8.61261 21.9782 8.19624 21.9782 7.54557C21.9782 6.99903 22.0588 6.50456 22.4613 6.11423C22.7298 5.82785 23.2133 5.69787 23.8308 5.69787H24.69V6.47871H23.8308C23.5088 6.47871 23.3206 6.53079 23.1327 6.68699C22.9715 6.8432 22.891 7.12939 22.891 7.51972C22.891 7.91005 22.9715 8.19643 23.1327 8.37867C23.2668 8.50866 23.5088 8.56073 23.7502 8.56073H24.1531L25.442 5.69806H26.7847L28.2885 9.1333V5.69787H29.6849L31.2693 8.22228V5.69787H32.182L32.1822 9.34139ZM21.5217 5.69787H20.609V9.34139H21.5217V5.69787ZM19.615 5.85407C19.3195 5.69787 18.9976 5.69787 18.5411 5.69787H16.4732V9.34139H17.3593V8.014H18.326C18.6484 8.014 18.8633 8.04004 18.9974 8.17021C19.1586 8.35245 19.1315 8.66486 19.1315 8.87295V9.34139H20.0443V8.61261C20.0443 8.30038 20.0176 8.14417 19.8835 7.96193C19.8029 7.85779 19.6417 7.72762 19.4539 7.6497C19.6952 7.54557 20.0984 7.25938 20.0984 6.6868C20.0986 6.27044 19.9103 6.03613 19.615 5.85407ZM15.8287 8.58676H13.7342V7.85798H15.8019V7.10336H13.7342V6.45268H15.8287V5.69806H12.8212V9.34157H15.8287V8.58676ZM12.1499 5.69787H10.673L9.57198 8.17021L8.3904 5.69787H6.94039V9.13311L5.40978 5.69787H4.06722L2.45603 9.34139H3.4227L3.77173 8.5345H5.65135L6.00038 9.34139H7.82648V6.47871L9.14218 9.34139H9.92081L11.2367 6.47871V9.34139H12.1497L12.1499 5.69787ZM26.7045 7.75384L26.0867 6.32251L25.4692 7.75384H26.7045ZM18.917 7.18146C18.7829 7.25956 18.6486 7.25956 18.4605 7.25956H17.3593V6.45287H18.4603C18.6215 6.45287 18.8091 6.45287 18.9168 6.50494C19.024 6.58304 19.078 6.68718 19.078 6.8432C19.078 6.99922 19.0242 7.1292 18.917 7.18146ZM4.09389 7.75384L4.71154 6.32251L5.32919 7.75384H4.09389ZM34.4115 0H2.37544L2.42897 7.38955L3.52996 4.96928H5.86606L6.18842 5.56788V4.96928H8.92747L9.54512 6.27044L10.1359 4.96928H18.8633C19.2658 4.96928 19.6148 5.04738 19.8837 5.25547V4.96928H22.2735V5.25547C22.676 5.04719 23.1863 4.96928 23.7772 4.96928H27.2412L27.5635 5.56788V4.96928H30.1146L30.4906 5.56788V4.96928H32.9877V10.0702H30.4638L29.9806 9.28951V10.0702H26.8386L26.4896 9.23744H25.7106L25.3616 10.0702H23.7237C23.0792 10.0702 22.5957 9.91396 22.2737 9.75794V10.0702H18.3799V8.89899C18.3799 8.74278 18.3531 8.71674 18.2456 8.71674H18.1115V10.07H10.5924V9.4193L10.324 10.07H8.73962L8.47119 9.44534V10.07H5.43665L5.11449 9.23725H4.33565L3.98663 10.07H2.42897V20.2359H34.465V16.1077C34.116 16.2639 33.6324 16.342 33.1491 16.342H30.8128V16.0296C30.5444 16.2381 30.0608 16.342 29.6045 16.342H22.2466V15.1711C22.2466 15.0148 22.22 15.0148 22.0855 15.0148H21.9513V16.342H19.5344V14.9628C19.1319 15.1448 18.6752 15.1448 18.2725 15.1448H18.0038V16.342H15.0501L14.352 15.5612L13.5734 16.342H8.82002V11.2413H13.6536L14.3518 12.0218L15.1038 11.2413H18.3531C18.7288 11.2413 19.3466 11.2932 19.615 11.5534V11.2413H22.5151C22.8106 11.2413 23.3747 11.2932 23.7504 11.5534V11.2413H28.1275V11.5536C28.3692 11.3453 28.8259 11.2415 29.2285 11.2415H31.672V11.5536C31.9408 11.3715 32.3165 11.2415 32.8001 11.2415H34.465L34.4115 0Z" fill="#0077A6"/>
</svg>
