<svg width="36" height="21" viewBox="0 0 36 21" fill="none" xmlns="http://www.w3.org/2000/svg">
<path fill-rule="evenodd" clip-rule="evenodd" d="M18.0606 18.2819C19.1748 17.295 20.0641 16.0929 20.6718 14.7528C21.2794 13.4126 21.5919 11.964 21.5891 10.4997C21.5919 9.03541 21.2795 7.58674 20.6718 6.24658C20.0642 4.90642 19.1748 3.70436 18.0606 2.71751C16.1555 1.02898 13.6283 0 10.855 0C4.92702 0 0.121094 4.70081 0.121094 10.4997C0.121094 16.2984 4.92702 20.9994 10.855 20.9994C13.6283 20.9994 16.1557 19.9704 18.0606 18.2819Z" fill="#3A9BD9"/>
<path fill-rule="evenodd" clip-rule="evenodd" d="M25.2661 0C22.4928 0 19.9652 1.02898 18.0605 2.71751C17.672 3.06214 17.3099 3.43367 16.9768 3.82917H19.1435C19.4409 4.18219 19.7145 4.55358 19.9623 4.94102H16.1584C15.9295 5.29929 15.7228 5.67058 15.5396 6.05287H20.5802C20.7537 6.4147 20.9058 6.78585 21.0357 7.16453H15.0851C14.9603 7.52926 14.8563 7.90037 14.7734 8.27619H21.3475C21.5085 9.00703 21.5895 9.75233 21.5892 10.4997C21.5892 11.6654 21.3943 12.7869 21.0359 13.8347H15.0851C15.2145 14.2134 15.3663 14.5847 15.5396 14.9465H20.5802C20.3974 15.3288 20.191 15.7001 19.9621 16.0584H16.1584C16.4061 16.4458 16.6794 16.8172 16.9766 17.1702H19.1435C18.8108 17.5659 18.4488 17.9375 18.0605 18.2821C19.9652 19.9706 22.4928 20.9996 25.2661 20.9996C31.1939 20.9996 36 16.2986 36 10.4999C36 4.70081 31.1939 0 25.2661 0Z" fill="#CC2131"/>
<path fill-rule="evenodd" clip-rule="evenodd" d="M34.5742 16.3529C34.5742 16.1656 34.7294 16.0137 34.9211 16.0137C35.1125 16.0137 35.2677 16.1656 35.2677 16.3529C35.2677 16.5399 35.1125 16.6918 34.9211 16.6918C34.8289 16.6915 34.7405 16.6557 34.6754 16.5921C34.6104 16.5286 34.574 16.4425 34.5742 16.3529ZM34.921 16.6103C35.0663 16.6103 35.1843 16.4954 35.1843 16.3528C35.1843 16.2101 35.0663 16.0949 34.921 16.0949C34.7752 16.0949 34.6573 16.2101 34.6573 16.3528C34.6573 16.4954 34.7754 16.6103 34.921 16.6103ZM34.8742 16.5015H34.803V16.2032H34.9319C34.9585 16.2032 34.9858 16.204 35.0094 16.2185C35.0216 16.2269 35.0316 16.2381 35.0383 16.2511C35.0451 16.264 35.0485 16.2784 35.0483 16.293C35.0483 16.3265 35.0282 16.3582 34.9956 16.3701L35.0517 16.5014H34.9727L34.9263 16.3835H34.8744V16.5015V16.3328H34.9137C34.9279 16.3328 34.944 16.3336 34.9568 16.3267C34.9625 16.3229 34.9672 16.3178 34.9703 16.3118C34.9734 16.3058 34.975 16.2991 34.9748 16.2924C34.9746 16.2864 34.9729 16.2806 34.9699 16.2753C34.9669 16.2701 34.9627 16.2656 34.9576 16.2623C34.9453 16.255 34.9254 16.2569 34.9119 16.2569H34.8745V16.5015H34.8742Z" fill="#CC2131"/>
<path fill-rule="evenodd" clip-rule="evenodd" d="M32.3021 12.7754C32.3021 12.5881 32.4572 12.4362 32.6486 12.4362C32.84 12.4362 32.9951 12.5881 32.9951 12.7754C32.9951 12.9627 32.84 13.1143 32.6486 13.1143C32.4572 13.1143 32.3021 12.9626 32.3021 12.7754ZM32.6484 13.0328C32.7938 13.0328 32.9117 12.9175 32.9117 12.7752C32.9117 12.6326 32.7938 12.5173 32.6484 12.5173C32.5027 12.5173 32.3851 12.6326 32.3851 12.7752C32.3851 12.9175 32.5029 13.0328 32.6484 13.0328ZM32.6016 12.924H32.5305V12.6261H32.6593C32.686 12.6261 32.7136 12.6265 32.7368 12.6414C32.7491 12.6497 32.759 12.6608 32.7658 12.6737C32.7726 12.6866 32.776 12.701 32.7757 12.7155C32.7757 12.7494 32.7558 12.7806 32.723 12.7926L32.7792 12.9238H32.7006L32.6538 12.806H32.6018V12.924V12.7553H32.6411C32.6557 12.7553 32.6718 12.7564 32.6843 12.7495C32.6899 12.7457 32.6945 12.7405 32.6976 12.7346C32.7008 12.7286 32.7024 12.722 32.7023 12.7153C32.7022 12.7092 32.7005 12.7033 32.6975 12.698C32.6945 12.6926 32.6902 12.6881 32.685 12.6847C32.6728 12.6778 32.6528 12.6793 32.6398 12.6793H32.602V12.924H32.6016ZM9.51516 13.1143H8.17924L8.9732 9.02222L7.14518 13.1143H5.92702L5.70436 9.04568L4.90792 13.1143H3.69531L4.73148 7.7912H6.81609L6.92637 11.0867L8.39614 7.7912H10.5684L9.51516 13.1143ZM24.4452 13.0613C24.0796 13.1594 23.7939 13.2017 23.4851 13.2017C22.8016 13.2017 22.4284 12.8663 22.4284 12.2511C22.4284 12.1293 22.4422 11.9997 22.4678 11.8626L22.5491 11.4394L22.6116 11.0968L23.2308 7.79102H24.5595L24.3669 8.78518H25.0487L24.8655 9.83762H24.1809L23.8288 11.6438C23.8157 11.7028 23.8081 11.7628 23.806 11.8232C23.806 12.0468 23.9442 12.144 24.2618 12.144C24.4139 12.144 24.5318 12.1306 24.6222 12.1036L24.4452 13.0613ZM28.347 8.82074C28.2351 8.77754 28.2088 8.77754 28.1957 8.77401C28.125 8.75874 28.0872 8.7498 28.0807 8.74868C28.0363 8.74115 27.9913 8.73753 27.9462 8.73788C27.5076 8.73788 27.1914 8.92893 26.7825 9.44082L26.9005 8.78481H25.6906L24.8763 13.1141H26.2132C26.6914 10.4664 26.8963 10.0028 27.5376 10.0028C27.5859 10.0028 27.6417 10.0065 27.7065 10.0138L27.8626 10.0449L28.347 8.82074ZM19.1493 10.1529C19.1493 10.6998 19.4643 11.0765 20.1785 11.3595C20.7258 11.577 20.8104 11.6407 20.8104 11.8373C20.8104 12.1068 20.5692 12.2283 20.0347 12.2283C19.6312 12.2283 19.2563 12.1753 18.8234 12.057L18.638 13.0557L18.6978 13.0655L18.9454 13.1099C19.0252 13.1233 19.1427 13.1361 19.2986 13.1477C19.6201 13.172 19.8688 13.1836 20.0441 13.1836C21.4701 13.1836 22.1289 12.7264 22.1289 11.739C22.1289 11.1448 21.8535 10.7964 21.1763 10.534C20.6096 10.3149 20.544 10.2663 20.544 10.0642C20.544 9.83092 20.7688 9.711 21.2055 9.711C21.4711 9.711 21.8332 9.7354 22.1766 9.77599L22.3692 8.77382C22.0194 8.72727 21.4885 8.68909 21.18 8.68909C19.668 8.68928 19.1447 9.35441 19.1493 10.1529ZM13.8581 13.1143H12.7479L12.7738 12.6656C12.4357 13.0208 11.9851 13.1892 11.3725 13.1892C10.6486 13.1892 10.1517 12.7069 10.1517 12.0068C10.1517 10.9521 11.0149 10.3374 12.4984 10.3374C12.6505 10.3374 12.8436 10.3491 13.0427 10.3707C13.0841 10.2285 13.0954 10.167 13.0954 10.0896C13.0954 9.80299 12.8624 9.69573 12.2386 9.69573C11.8571 9.69573 11.426 9.74266 11.1284 9.8164L10.9433 9.86239L10.8235 9.89032L11.0087 8.91701C11.6748 8.75017 12.1143 8.68705 12.6081 8.68705C13.7563 8.68705 14.3631 9.12687 14.3631 9.95698C14.3631 10.1706 14.3429 10.3328 14.2545 10.8147L13.9753 12.3505L13.9283 12.6261L13.8942 12.8462L13.8714 12.9968L13.8581 13.1143ZM12.8835 11.1856C12.7845 11.1736 12.6847 11.1676 12.5849 11.1677C11.8278 11.1677 11.4442 11.3891 11.4442 11.8263C11.4442 12.0958 11.6314 12.2678 11.9235 12.2678C12.4681 12.268 12.8605 11.8258 12.8835 11.1856ZM18.2408 13.0208C17.7946 13.1384 17.3342 13.1975 16.8719 13.1964C15.3783 13.1953 14.5999 12.5302 14.5999 11.2569C14.5999 9.77078 15.5903 8.67662 16.9346 8.67662C18.0345 8.67662 18.7367 9.28943 18.7367 10.2503C18.7367 10.5692 18.6888 10.8802 18.5728 11.3191H15.9165C15.9083 11.364 15.9041 11.4094 15.9036 11.455C15.9036 11.9569 16.2996 12.2129 17.0756 12.2129C17.5527 12.2129 17.984 12.1282 18.4629 11.939L18.2408 13.0208ZM17.5293 10.4448C17.5366 10.3547 17.5404 10.281 17.5404 10.224C17.5404 9.87245 17.3063 9.66613 16.9085 9.66613C16.4836 9.66613 16.1796 9.94283 16.0563 10.4422L17.5293 10.4448ZM32.4998 11.1515C32.2998 12.5916 31.2716 13.2303 29.9049 13.2303C28.3935 13.2303 27.783 12.3336 27.783 11.2347C27.783 9.70039 28.8169 8.66079 30.4136 8.66079C31.7996 8.66079 32.5355 9.51567 32.5355 10.6147C32.5355 10.8821 32.5351 10.8998 32.4998 11.1515ZM31.124 10.5975C31.124 10.1447 30.936 9.71715 30.3883 9.71715C29.7066 9.71715 29.2841 10.5054 29.2841 11.2012C29.2841 11.7882 29.5737 12.1825 30.0512 12.1742C30.3408 12.1742 30.9583 11.7883 31.0804 11.1145C31.109 10.9573 31.124 10.7849 31.124 10.5975Z" fill="white"/>
</svg>
