<svg width="37" height="21" viewBox="0 0 37 21" fill="none" xmlns="http://www.w3.org/2000/svg">
<path fill-rule="evenodd" clip-rule="evenodd" d="M18.0732 18.2777C19.9669 19.9719 22.5099 20.9996 25.276 20.9996C31.2166 20.9996 36.0247 16.295 36.0247 10.5087C36.0247 4.70478 31.2166 0 25.276 0C22.5099 0 19.9669 1.02743 18.0732 2.72184C15.9012 4.65047 14.5273 7.42641 14.5273 10.5087C14.5276 13.591 15.9012 16.3671 18.0732 18.2777Z" fill="#E9B040"/>
<path fill-rule="evenodd" clip-rule="evenodd" d="M34.6016 16.3478C34.6016 16.1675 34.7501 16.0234 34.9356 16.0234C35.1397 16.0234 35.2881 16.1677 35.2881 16.3478C35.2881 16.5464 35.1395 16.6904 34.9356 16.6904C34.7501 16.6904 34.6016 16.5464 34.6016 16.3478ZM34.9356 16.6185C35.0842 16.6185 35.2138 16.4921 35.2138 16.348C35.2138 16.204 35.084 16.0958 34.9356 16.0958C34.8054 16.0958 34.6758 16.204 34.6758 16.348C34.6758 16.4921 34.8056 16.6185 34.9356 16.6185ZM34.8985 16.5103H34.8242V16.2038H34.954C34.9728 16.2038 35.0099 16.2038 35.0283 16.222C35.0654 16.2398 35.0654 16.2581 35.0654 16.2941C35.0654 16.3302 35.0471 16.3663 35.0099 16.3663L35.0842 16.5105H34.9911L34.954 16.3841H34.8985V16.5103V16.33H34.9728C34.9911 16.33 34.9911 16.3117 34.9911 16.2939C34.9911 16.2757 34.9911 16.2757 34.9728 16.2579H34.8985V16.5103Z" fill="#E9B040"/>
<path fill-rule="evenodd" clip-rule="evenodd" d="M21.5471 9.39132C21.51 9.01285 21.4357 8.65241 21.3614 8.27373H14.7896C14.8639 7.89526 14.9754 7.53482 15.0866 7.17417H21.0459C20.9166 6.79471 20.7679 6.42172 20.6004 6.05658H15.5509C15.7366 5.67477 15.941 5.30182 16.1635 4.93899H19.9694C19.7245 4.55403 19.4516 4.18657 19.1527 3.83943H16.9804C17.3165 3.44101 17.6826 3.06745 18.0757 2.72184C16.1637 1.04546 13.6388 0 10.8542 0C4.93217 0 0.105469 4.70478 0.105469 10.5087C0.105469 16.295 4.93217 20.9996 10.8542 20.9996C13.6388 20.9996 16.1635 19.9719 18.0757 18.2777C18.4629 17.9382 18.8229 17.5705 19.1527 17.178H16.9804C16.6833 16.8175 16.4235 16.4571 16.1635 16.0604H19.9694C20.2087 15.7039 20.4197 15.3303 20.6006 14.9428H15.5509C15.3837 14.5823 15.2168 14.2219 15.0866 13.843H21.0459C21.1757 13.4826 21.2688 13.1043 21.3612 12.7254C21.4355 12.365 21.5098 11.9867 21.5469 11.6078C21.5846 11.2424 21.6032 10.8753 21.6029 10.5081C21.6029 10.1302 21.5843 9.75175 21.5471 9.39132Z" fill="#CC2131"/>
<path fill-rule="evenodd" clip-rule="evenodd" d="M34.6016 12.9438C34.6016 12.7456 34.7501 12.6016 34.9356 12.6016C35.1397 12.6016 35.2881 12.7458 35.2881 12.9438C35.2881 13.1241 35.1395 13.2864 34.9356 13.2864C34.7501 13.2864 34.6016 13.1239 34.6016 12.9438ZM34.9356 13.196C35.0842 13.196 35.2138 13.0878 35.2138 12.9438C35.2138 12.7997 35.084 12.6915 34.9356 12.6915C34.8054 12.6915 34.6758 12.7997 34.6758 12.9438C34.6758 13.0878 34.8056 13.196 34.9356 13.196ZM34.8985 13.0878H34.8242V12.7995H35.0283C35.0654 12.8177 35.0654 12.8538 35.0654 12.8899C35.0654 12.9077 35.0471 12.9438 35.0099 12.962L35.0842 13.088H34.9911L34.954 12.9798H34.8985V13.0878V12.9257H34.9356C34.954 12.9257 34.9728 12.9257 34.9728 12.9075C34.9911 12.9075 34.9911 12.8897 34.9911 12.8714C34.9911 12.8714 34.9911 12.8536 34.9728 12.8536C34.9728 12.8353 34.954 12.8536 34.9356 12.8536H34.8985V13.0878Z" fill="white"/>
<path fill-rule="evenodd" clip-rule="evenodd" d="M14.4153 13.5363C14.0626 13.6262 13.8026 13.6805 13.5429 13.6805C12.9859 13.6805 12.6516 13.3379 12.6516 12.725C12.6516 12.599 12.6702 12.4728 12.6888 12.3285L12.7631 11.9142L12.8188 11.5716L13.32 8.61554H14.4339L14.3039 9.2645H15.0094L14.8422 10.346H14.1367L13.8398 12.1124C13.8212 12.2027 13.8212 12.2566 13.8212 12.2927C13.8212 12.5271 13.9326 12.6171 14.211 12.6171C14.341 12.6171 14.4522 12.5992 14.5636 12.581L14.4153 13.5363ZM18.0169 13.5002C17.6085 13.6084 17.2373 13.6623 16.8287 13.6623C15.5663 13.6623 14.8422 13.0133 14.8422 11.7339C14.8422 10.2376 15.6963 9.15609 16.8842 9.15609C17.831 9.15609 18.4436 9.76898 18.4436 10.7241C18.4436 11.0489 18.4065 11.3552 18.3138 11.7878H15.9932C15.9747 11.8599 15.9747 11.896 15.9747 11.932C15.9747 12.4367 16.3273 12.689 16.9957 12.689C17.4226 12.689 17.7938 12.599 18.2024 12.4189L18.0169 13.5002ZM17.33 10.9226V10.7062C17.33 10.3458 17.1257 10.1475 16.773 10.1475C16.4016 10.1475 16.1418 10.4177 16.0304 10.9224H17.33V10.9226ZM5.50433 13.5902H4.35332L5.02168 9.49871L3.51802 13.5902H2.71987L2.62701 9.51674L1.9215 13.5902H0.789062L1.69864 8.27292H3.38802L3.42516 11.5538L4.55761 8.27292H6.41413L5.50433 13.5902ZM8.3078 11.6618C8.19637 11.6435 8.15922 11.6435 8.08493 11.6435C7.41657 11.6435 7.08249 11.8958 7.08249 12.2925C7.08249 12.563 7.24964 12.7433 7.50943 12.7433C8.06636 12.7433 8.28901 12.2925 8.3078 11.6618ZM9.23595 13.5902H8.23351L8.25208 13.1398C7.99207 13.482 7.63943 13.6623 7.02678 13.6623C6.46984 13.6623 5.9872 13.1758 5.9872 12.4728C5.9872 12.2746 6.02434 12.0945 6.08006 11.9142C6.26555 11.247 6.95249 10.8327 8.01065 10.8144C8.14065 10.8144 8.34472 10.8144 8.53044 10.8327C8.56736 10.6884 8.56736 10.6341 8.56736 10.5442C8.56736 10.2556 8.32615 10.1655 7.78779 10.1655C7.45371 10.1655 7.08228 10.2196 6.82249 10.3097L6.65534 10.3458L6.58106 10.3636L6.7482 9.3903C7.28657 9.22801 7.67635 9.15609 8.10351 9.15609C9.10594 9.15609 9.64431 9.60669 9.64431 10.4358C9.64431 10.6522 9.66288 10.8144 9.58859 11.2831L9.32881 12.8332L9.29166 13.1037L9.27309 13.3201L9.25452 13.4644L9.23595 13.5902ZM23.6234 9.30035C23.9575 9.30035 24.2546 9.39051 24.663 9.58866L24.8671 8.435C24.7556 8.38091 24.7185 8.38091 24.5701 8.32681L24.1063 8.20058C23.9577 8.16452 23.7722 8.14648 23.5677 8.14648C22.992 8.14648 22.6579 8.16452 22.3055 8.36287C22.1197 8.4891 21.8783 8.65139 21.6183 8.9397L21.4697 8.90364L20.2816 9.71467L20.3375 9.26407H19.112L18.3883 13.59H19.5581L19.9849 11.265C19.9849 11.265 20.1522 10.9402 20.2263 10.8325C20.4492 10.562 20.6347 10.562 20.8759 10.562H20.9689C20.93 10.8367 20.9113 11.1138 20.913 11.3911C20.913 12.797 21.7297 13.6803 22.9922 13.6803C23.3079 13.6803 23.5867 13.6443 24.0134 13.5361L24.2179 12.3105C23.8467 12.5086 23.5124 12.5988 23.2338 12.5988C22.5471 12.5988 22.1383 12.0941 22.1383 11.3011C22.1379 10.1294 22.7507 9.30035 23.6234 9.30035ZM33.4806 8.27292L33.2211 9.78702C32.9425 9.37248 32.6082 9.17412 32.1627 9.17412C31.5498 9.17412 30.9746 9.51653 30.6217 10.1655V10.1477L29.8793 9.71489L29.9535 9.26429H28.7097L28.0042 13.5902H29.1552L29.5452 11.2653C29.5452 11.2653 29.8421 10.9405 29.9164 10.8327C30.1021 10.6163 30.2876 10.58 30.4362 10.5622C30.3064 10.9226 30.2321 11.3552 30.2321 11.8421C30.2321 12.9236 30.8074 13.6445 31.6613 13.6445C32.0884 13.6445 32.4225 13.5002 32.738 13.1576L32.6825 13.5902H33.778L34.669 8.27292H33.4806ZM32.0515 12.563C31.6615 12.563 31.4574 12.2746 31.4574 11.7156C31.4574 10.8683 31.8286 10.2556 32.3668 10.2556C32.7751 10.2556 32.9796 10.5622 32.9796 11.103C32.9796 11.9681 32.6084 12.563 32.0515 12.563ZM26.6867 11.6618C26.5752 11.6435 26.5381 11.6435 26.4638 11.6435C25.795 11.6435 25.4609 11.8958 25.4609 12.2925C25.4609 12.563 25.6283 12.7433 25.8881 12.7433C26.445 12.7433 26.6679 12.2925 26.6867 11.6618ZM27.6148 13.5902H26.5936L26.6307 13.1398C26.3709 13.482 26.0179 13.6623 25.4056 13.6623C24.8299 13.6623 24.3289 13.1937 24.3289 12.4728C24.3289 11.4456 25.1268 10.8147 26.3893 10.8147C26.5195 10.8147 26.7234 10.8147 26.8907 10.8329C26.9279 10.6886 26.9467 10.6343 26.9467 10.5444C26.9467 10.2559 26.7052 10.1657 26.1483 10.1657C25.8326 10.1657 25.4428 10.2198 25.183 10.31L25.0344 10.346L24.9601 10.3638L25.1271 9.39051C25.6656 9.22822 26.0556 9.1563 26.4824 9.1563C27.4848 9.1563 28.0046 9.6069 28.0046 10.436C28.0046 10.6524 28.0417 10.8147 27.9491 11.2833L27.7077 12.8334L27.6705 13.1039L27.6334 13.3203L27.615 13.4646V13.5902H27.6148ZM11.6678 10.1835C11.8906 10.1835 12.2061 10.2016 12.5404 10.2556L12.7076 9.24625C12.3733 9.21019 11.9278 9.15609 11.6678 9.15609C10.3684 9.15609 9.94146 9.84111 9.94146 10.6341C9.94146 11.1571 10.1827 11.5353 10.8139 11.8236C11.278 12.04 11.3523 12.0759 11.3523 12.2744C11.3523 12.5445 11.111 12.707 10.6653 12.707C10.3127 12.707 9.97838 12.6527 9.60717 12.5267L9.47716 13.5178L9.49552 13.5361L9.71838 13.5721C9.79267 13.59 9.88552 13.6082 10.0155 13.626C10.2939 13.6443 10.5353 13.6621 10.6839 13.6621C11.9835 13.6621 12.5218 13.1756 12.5218 12.2201C12.5218 11.6255 12.2247 11.265 11.6492 11.0128C11.148 10.7962 11.0923 10.7606 11.0923 10.562C11.0923 10.3638 11.3151 10.1835 11.6678 10.1835Z" fill="#1B3771"/>
<path fill-rule="evenodd" clip-rule="evenodd" d="M25.1893 8.09254L24.9848 9.2462C24.5764 9.04784 24.2793 8.95789 23.9452 8.95789C23.0725 8.95789 22.4601 9.78696 22.4601 10.9586C22.4601 11.7699 22.8685 12.2563 23.5556 12.2563C23.8338 12.2563 24.1681 12.1664 24.5393 11.9863L24.3352 13.1936C23.9081 13.3018 23.6297 13.3561 23.314 13.3561C22.0518 13.3561 21.272 12.4727 21.272 11.049C21.272 9.15625 22.3487 7.82227 23.8895 7.82227C24.0936 7.82227 24.2791 7.8403 24.4276 7.87636L24.8919 7.98456C25.0407 8.03866 25.0779 8.05669 25.1893 8.09254ZM21.4391 8.88576H21.3277C20.9381 8.88576 20.7152 9.06608 20.3624 9.5886L20.4738 8.92161H19.4154L18.6918 13.2477H19.8616C20.2883 10.598 20.3997 10.1474 20.9567 10.1474H21.031C21.1424 9.62467 21.2907 9.24598 21.4765 8.90358L21.4391 8.88576ZM14.719 13.1936C14.4035 13.3018 14.1434 13.3379 13.8837 13.3379C13.2896 13.3379 12.9553 13.0135 12.9553 12.3828C12.9553 12.2746 12.9739 12.1305 12.9924 12.0041L13.0667 11.5715L13.1224 11.2293L13.6237 8.27287H14.7747L14.6447 8.92182H15.2387L15.0902 9.98532H14.4961L14.1806 11.7879C14.162 11.8601 14.162 11.9144 14.162 11.9683C14.162 12.1846 14.2734 12.2748 14.5518 12.2748C14.6818 12.2748 14.793 12.2748 14.8673 12.2387L14.719 13.1936ZM10.2449 10.2917C10.2449 10.8326 10.5047 11.2109 11.1173 11.4994C11.6 11.7158 11.6743 11.7877 11.6743 11.968C11.6743 12.2385 11.47 12.3645 11.0059 12.3645C10.6533 12.3645 10.3375 12.3107 9.96632 12.2025L9.79918 13.1936L9.85489 13.2119L10.0592 13.2479C10.1333 13.2657 10.2263 13.284 10.3747 13.284C10.6345 13.3201 10.8573 13.3201 11.0059 13.3201C12.231 13.3201 12.8067 12.8692 12.8067 11.8781C12.8067 11.283 12.5655 10.9404 11.99 10.6703C11.4888 10.4539 11.4331 10.4001 11.4331 10.2017C11.4331 9.96749 11.6373 9.8593 12.0086 9.8593C12.2314 9.8593 12.5469 9.87733 12.8441 9.9134L13.011 8.92203C12.7141 8.86794 12.25 8.83187 11.99 8.83187C10.6904 8.83166 10.2263 9.49865 10.2449 10.2917ZM34.0817 13.2479H32.9862L33.0421 12.8332C32.7264 13.1575 32.3921 13.3018 31.9649 13.3018C31.1111 13.3018 30.5541 12.5992 30.5541 11.5177C30.5541 10.0755 31.4268 8.84969 32.4476 8.84969C32.9119 8.84969 33.246 9.04805 33.5619 9.44455L33.8217 7.93046H34.9727L34.0817 13.2479ZM32.3735 12.2385C32.9121 12.2385 33.2833 11.6256 33.2833 10.7783C33.2833 10.2195 33.0788 9.931 32.6704 9.931C32.1507 9.931 31.7611 10.5259 31.7611 11.3732C31.7611 11.9502 31.9652 12.2385 32.3735 12.2385ZM18.2832 13.1575C17.8746 13.284 17.5034 13.3379 17.0765 13.3379C15.7769 13.3379 15.1085 12.6711 15.1085 11.3912C15.1085 9.91318 15.9626 8.81363 17.1322 8.81363C18.0975 8.81363 18.7099 9.42652 18.7099 10.3818C18.7099 10.7064 18.6728 11.013 18.5613 11.4633H16.2598C16.2412 11.5177 16.2412 11.5537 16.2412 11.5898C16.2412 12.0945 16.594 12.3467 17.2622 12.3467C17.6891 12.3467 18.0603 12.2746 18.4689 12.0762L18.2832 13.1575ZM17.6334 10.58V10.3638C17.6334 10.0033 17.4291 9.80499 17.0765 9.80499C16.7053 9.80499 16.4453 10.0755 16.3338 10.58H17.6334ZM5.80799 13.2479H4.65698L5.32534 9.15603L3.82168 13.2479H3.02331L2.93046 9.1921L2.22516 13.2479H1.14844L2.05802 7.93046H3.72882L3.78454 11.2291L4.89819 7.93046H6.71757L5.80799 13.2479ZM8.68553 11.3191C8.57409 11.3191 8.51838 11.3013 8.42552 11.3013C7.77573 11.3013 7.44165 11.5355 7.44165 11.968C7.44165 12.2385 7.59023 12.4006 7.85001 12.4006C8.33266 12.4006 8.66695 11.968 8.68553 11.3191ZM9.53939 13.2479H8.57388L8.59245 12.7971C8.2953 13.1575 7.90551 13.3201 7.36715 13.3201C6.73592 13.3201 6.30899 12.8514 6.30899 12.1484C6.30899 11.0851 7.05143 10.4722 8.35101 10.4722C8.48102 10.4722 8.64816 10.4902 8.83366 10.508C8.87081 10.364 8.87081 10.3099 8.87081 10.2378C8.87081 9.94946 8.66652 9.84127 8.12815 9.84127C7.79408 9.84127 7.42264 9.87733 7.16286 9.94946L6.99571 10.0036L6.88428 10.0216L7.05143 9.04826C7.62693 8.88597 8.01672 8.83187 8.44387 8.83187C9.44631 8.83187 9.98468 9.26444 9.98468 10.0935C9.98468 10.3099 9.96611 10.4722 9.89182 10.9589L9.63181 12.4912L9.59467 12.7613L9.5761 12.9776L9.55753 13.1402L9.53939 13.2479ZM27.0644 11.3191C26.9342 11.3191 26.8787 11.3013 26.8046 11.3013C26.1362 11.3013 25.8017 11.5355 25.8017 11.968C25.8017 12.2385 25.9691 12.4006 26.2289 12.4006C26.6932 12.4006 27.0456 11.968 27.0644 11.3191ZM27.9183 13.2479H26.953L26.9713 12.7971C26.6744 13.1575 26.2846 13.3201 25.7462 13.3201C25.115 13.3201 24.6879 12.8514 24.6879 12.1484C24.6879 11.0851 25.4303 10.4722 26.7299 10.4722C26.8601 10.4722 27.0272 10.4902 27.1942 10.508C27.2313 10.364 27.2501 10.3099 27.2501 10.2378C27.2501 9.94946 27.0456 9.84127 26.5077 9.84127C26.1732 9.84127 25.7836 9.87733 25.5236 9.94946L25.375 10.0036L25.2636 10.0216L25.4305 9.04826C26.0062 8.88597 26.3958 8.83187 26.823 8.83187C27.8254 8.83187 28.3452 9.26444 28.3452 10.0935C28.3452 10.3099 28.3452 10.4722 28.2525 10.9589L28.0111 12.4912L27.974 12.7613L27.9368 12.9776L27.9185 13.1402V13.2479H27.9183ZM31.037 8.88576H30.9256C30.536 8.88576 30.3131 9.06608 29.9603 9.5886L30.0717 8.92161H29.0133L28.3078 13.2477H29.4588C29.886 10.598 29.9974 10.1474 30.5544 10.1474H30.6286C30.7401 9.62467 30.8884 9.24598 31.0741 8.90358L31.037 8.88576Z" fill="white"/>
</svg>
