<svg width="67" height="21" viewBox="0 0 67 21" fill="none" xmlns="http://www.w3.org/2000/svg">
<path d="M28.9 20.6495H23.4602L26.86 0.362501H32.3003L28.9 20.6495ZM18.884 0.362501L13.698 14.3161L13.0843 11.3113L13.0849 11.3124L11.2545 2.18912C11.2545 2.18912 11.0332 0.362501 8.67407 0.362501H0.100602L0 0.706009C0 0.706009 2.62178 1.23565 5.69012 3.02482L10.4162 20.6501H16.0839L24.7384 0.362501H18.884ZM61.6703 20.6495H66.6652L62.3102 0.361959H57.9374C55.9181 0.361959 55.4263 1.87383 55.4263 1.87383L47.3134 20.6495H52.9839L54.1179 17.6361H61.0332L61.6703 20.6495ZM55.6845 13.4733L58.5427 5.88142L60.1507 13.4733H55.6845ZM47.7387 5.24107L48.515 0.884545C48.515 0.884545 46.1196 0 43.6224 0C40.923 0 34.5124 1.14557 34.5124 6.71604C34.5124 11.9571 42.0363 12.0222 42.0363 14.7752C42.0363 17.5281 35.2876 17.0348 33.0604 15.2989L32.2517 19.854C32.2517 19.854 34.6806 20.9996 38.3917 20.9996C42.1039 20.9996 47.704 19.1333 47.704 14.054C47.704 8.77926 40.1126 8.28815 40.1126 5.99484C40.1131 3.70099 45.4109 3.99565 47.7387 5.24107Z" fill="#2566AF"/>
</svg>
